<svg width="84" height="32" id="_레이어_1" data-name="레이어 1" xmlns="http://www.w3.org/2000/svg" viewBox="0 0 84 32">
  <defs>
    <style>
      .cls-1 {
        fill: none;
      }

      .cls-1, .cls-2, .cls-3 {
        stroke-width: 0px;
      }

      .cls-2 {
        fill: #0f172a;
      }

      .cls-3 {
        fill:#8b3dff;
      }
    </style>
  </defs>
  <polygon class="cls-1" points="45.15 10.56 45.15 14.94 37.75 14.94 42.86 10.56 45.15 10.56"/>
  <polygon class="cls-1" points="42.86 10.56 37.75 14.94 37.71 14.94 37.71 10.56 42.86 10.56"/>
  <rect class="cls-1" x="49.95" y="8.97" width="4.49" height="2.89"/>
  <polygon class="cls-1" points="14.96 6.74 14.96 14.2 6.91 14.2 6.91 13.64 14.96 6.74"/>
  <polygon class="cls-1" points="6.91 6.43 6.91 13.64 14.96 6.74 14.96 6.43 6.91 6.43"/>
  <polygon class="cls-2" points="19.77 2.47 19.77 2.62 14.96 6.74 14.96 6.43 6.91 6.43 6.91 13.64 2.1 17.76 2.1 2.47 19.77 2.47"/>
  <polygon class="cls-2" points="59.6 26.44 59.6 30.47 19.62 30.47 24.32 26.44 35.63 26.44 35.63 20.86 40.47 20.86 40.47 26.44 59.6 26.44"/>
  <path class="cls-2" d="M54.44,1.69v3.31h-4.49v-.52l-7.09,6.08h2.29v4.38h-7.4l-4.63,3.97h16.83v-3.09h4.49v6.82h4.84V1.69h-4.84ZM54.44,11.86h-4.49v-2.89h4.49v2.89Z"/>
  <polygon class="cls-3" points="19.77 18.16 2.1 18.16 2.1 17.76 6.91 13.64 6.91 14.2 14.96 14.2 14.96 6.74 19.77 2.62 19.77 18.16"/>
  <polygon class="cls-3" points="9.67 26.44 24.32 26.44 19.62 30.47 4.83 30.47 4.83 20.56 9.67 20.56 9.67 26.44"/>
  <polygon class="cls-3" points="49.95 2.14 49.95 4.48 42.86 10.56 37.71 10.56 37.71 14.94 37.75 14.94 33.12 18.91 32.9 18.91 32.9 2.14 37.71 2.14 37.71 6.69 45.15 6.69 45.15 2.14 49.95 2.14"/>
  <rect class="cls-3" x="23.64" y="1.69" width="4.84" height="20.72"/>
</svg>