<?xml version="1.0" encoding="utf-8"?>
<!-- Generator: Adobe Illustrator 28.2.0, SVG Export Plug-In . SVG Version: 6.00 Build 0)  -->
<svg version="1.1" id="레이어_1" xmlns="http://www.w3.org/2000/svg" xmlns:xlink="http://www.w3.org/1999/xlink" x="0px"
	 y="0px" viewBox="0 0 69.8 35.9" style="enable-background:new 0 0 69.8 35.9;" xml:space="preserve">
<style type="text/css">
	.st0{opacity:0.8;fill:#B9B9B9;enable-background:new    ;}
	.st1{opacity:0.6;fill:#B9B9B9;enable-background:new    ;}
	.st2{fill:#B9B9B9;}
	.st3{fill:#E4E4E4;}
</style>
<g>
	<path class="st0" d="M25.9,4.1c0,1.1-0.9,2.1-2.1,2.1c-1.1,0-2.1-0.9-2.1-2.1C21.7,3,22.6,2,23.8,2S25.9,2.9,25.9,4.1L25.9,4.1z"/>
	<path class="st1" d="M11.2,7c0,1.1-0.9,2.1-2.1,2.1c-1.1,0-2-0.9-2-2.1c0-1.1,0.9-2,2.1-2C10.3,5,11.2,5.9,11.2,7L11.2,7z"/>
	<path class="st1" d="M10.2,12.5l7.3,13.6H7.1C7.1,26.2,11.2,23.5,10.2,12.5L10.2,12.5z"/>
	<path class="st0" d="M26.3,9.3l7.5,14.6H23.1C23.1,24,27.3,21.1,26.3,9.3L26.3,9.3z"/>
	<path class="st2" d="M35.9,2.7c-0.3-1-2-0.9-2.7-0.7c-0.3,0.1-0.6,0.2-0.8,0.4c-0.1,0.1-0.2,0.2-0.2,0.3S32.1,2.8,31.9,3
		c-0.5,0.5-1,0.9-1.6,1.3c-1.8,1.4-3.7,2.5-5.8,3.5C17.7,11,10,11.5,2.7,9.5C2,9.3,0.9,9.3,0.2,9.8s0.2,1,0.6,1.1
		C9.2,13.2,18,12.7,26,9.4c2.6-1.1,5-2.5,7.3-4.2C33.6,4.9,36.1,3.4,35.9,2.7L35.9,2.7z"/>
	<path class="st2" d="M18.9,6.3c0,1.2-0.9,2.1-2.1,2.1s-2.1-0.9-2.1-2.1s0.9-2.1,2.1-2.1C17.9,4.2,18.9,5.1,18.9,6.3L18.9,6.3z"/>
	<path class="st2" d="M17.7,12l10.9,21.9H13.1C13.1,33.9,19.3,29.6,17.7,12L17.7,12z"/>
</g>
<g>
	<path class="st3" d="M48.2,17.5c0,0.5-0.1,0.9-0.4,1.3c-0.3,0.2-0.6,0.2-1,0.2h-4.5c-0.4,0-0.8-0.1-1.1-0.3
		c-0.3-0.3-0.4-0.6-0.4-1.3c0-0.6,0-1.4,0-2c0-0.5,0-0.9,0-1.5s0.1-1.1,0-1.5c-0.1-0.2-1.1-1.2-1.1-1.2v-0.1c0-0.1,0-0.2,0-0.2v-0.1
		c0,0,0,0,0.1,0c1.4,0,2.7,0,4.1,0c1.4,0,2.6,0,4,0c0.1,0,0.1,0,0.3,0.1c0,0,0.1,0.1,0.1,0.3L48.2,17.5z M42.3,20.6
		c0.1,0,0.2,0,0.2,0c0.8,0.1,1.8,0.2,2.6,0.3c0.1,0,0.3,0.1,0.4,0.1c0.1,0.1,0.1,0.2,0.1,0.4c0,0.9,0,1.9,0,2.8c0,0.3,0,0.7,0.3,0.9
		c0.2,0.2,0.4,0.2,0.7,0.2c1.9,0,3.8,0,5.7,0c0.2,0,0.4,0,0.6,0.1c0.2,0.1,0.3,0.3,0.3,0.5s-0.1,0.4-0.3,0.5
		c-0.1,0.1-0.3,0.1-0.5,0.1c-2.2,0-4.5,0-6.7,0c-0.4,0-0.8,0-1.2-0.1s-0.7-0.3-0.9-0.7c-0.3-0.4-0.2-2.8-0.2-3.6
		c0-0.1,0-0.3-0.1-0.4c-0.1-0.3-0.5-0.4-0.8-0.5c-0.1-0.1-0.2-0.1-0.3-0.3C42.1,20.9,42.1,20.7,42.3,20.6L42.3,20.6z M45.9,12.3
		h-2.8v4.6c0,0.3,0,0.5,0.1,0.6s0.3,0.2,0.5,0.2h1.5c0.6,0,0.6-0.5,0.6-0.8v-4.6C45.8,12.3,45.9,12.3,45.9,12.3z M52.6,21.8
		c-0.3,0.3-0.5,0.5-0.8,0.5s-1.1,0.2-1.1-0.5V11.2c0-0.4-0.1-0.6-0.4-0.8c-0.3-0.2-0.5-0.3-0.6-0.4c-0.1-0.1-0.1-0.3-0.1-0.4
		c0-0.1,0.1-0.3,0.3-0.3L53,9.7c0.1,0,0.3,0.1,0.3,0.1c0,0.1,0,0.1,0,0.3c0,1.2,0,2.4,0,3.6c0,1.9,0,3.8,0,5.7
		C53.3,20.2,53.3,21.1,52.6,21.8z"/>
	<path class="st3" d="M58,13.7h2.8v-1.4c0-0.4-0.1-0.6-0.3-0.8c-0.1-0.1-0.4-0.3-0.5-0.4c-0.3-0.1-0.3-0.3-0.3-0.4s0.1-0.3,0.3-0.3
		l2.7,0.4c0.1,0,0.3,0.1,0.3,0.1c0,0.1,0,0.1,0,0.1v1.4c0,0,2.4,0.3,2.4,0.2v-1.4c0-0.4-0.1-0.6-0.4-0.8s-0.5-0.3-0.6-0.4
		c-0.4-0.3-0.3-0.7,0.2-0.7l3.1,0.4c0.1,0,0.3,0.1,0.3,0.1c0,0.1,0,0.1,0,0.3v10.5c0,0.4-0.1,0.8-0.3,1.1c-0.2,0.2-0.4,0.4-0.6,0.5
		c-0.3,0.1-0.7,0.1-1.1,0h-0.1c0,0,0,0,0-0.1c-0.1-0.3-0.1-4.6-0.1-4.6c-0.3,0-0.5,0-0.8,0s-0.8,0.1-1.2-0.1c-0.1,0-0.6-0.3-0.6-0.3
		V18c0,0.5-0.1,0.9-0.4,1.3c-0.3,0.3-0.6,0.3-1.1,0.3h-4.3c-0.4,0-0.8-0.1-1.1-0.3C56,19,55.8,18.6,55.8,18v-5.2
		c0-0.4-0.1-0.6-0.3-0.8c-0.3-0.2-0.4-0.3-0.5-0.4c-0.2-0.1-0.2-0.3-0.2-0.4c0-0.1,0.1-0.3,0.3-0.3l2.7,0.4c0.1,0,0.3,0.1,0.4,0.4
		v2.1H58V13.7z M57.3,20.8c0.1,0,0.1,0,0.2,0c0.8,0.1,1.8,0.2,2.6,0.3c0.1,0,0.3,0,0.4,0.1c0.1,0.1,0.1,0.3,0.1,0.5
		c0,0.6,0,1.3,0,1.8c0,0.4-0.1,1.3,0.1,1.6c0.1,0.1,0.2,0.2,0.3,0.2c0.4,0.1,0.9,0.1,1.4,0.1s1.1,0,1.6,0c1.1,0,2,0,3.1,0
		c0.2,0,0.4,0,0.6,0.1S68,25.8,68,26s-0.1,0.4-0.3,0.5c-0.2,0.1-0.3,0.1-0.5,0.1c-2.1,0-4.2,0-6.3,0c-0.4,0-0.9,0-1.4-0.1
		c-0.3-0.1-0.6-0.2-0.8-0.4c-0.3-0.3-0.3-0.5-0.3-0.9c0-0.8-0.1-1.7,0-2.5c0-0.2,0-0.4-0.1-0.6s-0.3-0.3-0.4-0.3
		c-0.2-0.1-0.4-0.1-0.5-0.3C57.1,21.2,57.1,20.9,57.3,20.8z M60.9,15H58v2.4c0,0.3,0,0.5,0.1,0.6s0.3,0.2,0.5,0.2h1.5
		c0.3,0,0.5-0.1,0.6-0.3c0.1-0.1,0-0.4,0-0.6V15H60.9z M63.2,13.5v2.3c0.1,0,2.4,0.2,2.4,0.2v-1.9c-0.3,0-0.5,0-0.8,0
		C64,14.1,63.5,14.2,63.2,13.5z"/>
</g>
</svg>
