<svg version="1.1" height="60" id="레이어_1" xmlns="http://www.w3.org/2000/svg" xmlns:xlink="http://www.w3.org/1999/xlink" x="0px"
	 y="0px" viewBox="0 0 177.7 32" style="enable-background:new 0 0 177.7 32;" xml:space="preserve">
<style type="text/css">
	.st0{fill:#8B3DFF;}
	.st1{fill:#0F172A;}
	.st2{opacity:0.8;fill:#8C1E5A;}
	.st3{opacity:0.6;fill:#8C1E5A;}
	.st4{fill:#8C1E5A;}
	.st5{fill:#231815;}
</style>
<g>
	<path class="st2" d="M25.9,2.2c0,1.1-0.9,2.1-2.1,2.1c-1.1,0-2.1-0.9-2.1-2.1c0-1.1,0.9-2.1,2.1-2.1C25,0.1,25.9,1,25.9,2.2
		L25.9,2.2z"/>
	<path class="st3" d="M11.2,5.1c0,1.1-0.9,2.1-2.1,2.1C8,7.2,7.1,6.3,7.1,5.1C7.1,4,8,3.1,9.2,3.1C10.3,3.1,11.2,4,11.2,5.1
		L11.2,5.1z"/>
	<path class="st3" d="M10.2,10.6l7.3,13.6H7.1C7.1,24.3,11.2,21.6,10.2,10.6L10.2,10.6z"/>
	<path class="st2" d="M26.3,7.4l7.5,14.6H23.1C23.1,22.1,27.3,19.2,26.3,7.4L26.3,7.4z"/>
	<path class="st4" d="M35.9,0.8c-0.3-1-2-0.9-2.7-0.7c-0.3,0.1-0.6,0.2-0.8,0.4c-0.1,0.1-0.2,0.2-0.2,0.3c0,0.1-0.1,0.1-0.3,0.3
		c-0.5,0.5-1,0.9-1.6,1.3c-1.8,1.4-3.7,2.5-5.8,3.5C17.7,9.1,10,9.6,2.7,7.6C2,7.4,0.9,7.4,0.2,7.9c-0.7,0.5,0.2,1,0.6,1.1
		C9.2,11.3,18,10.8,26,7.5c2.6-1.1,5-2.5,7.3-4.2C33.6,3,36.1,1.5,35.9,0.8L35.9,0.8z"/>
	<path class="st4" d="M18.9,4.4c0,1.2-0.9,2.1-2.1,2.1c-1.2,0-2.1-0.9-2.1-2.1c0-1.2,0.9-2.1,2.1-2.1C17.9,2.3,18.9,3.2,18.9,4.4
		L18.9,4.4z"/>
	<path class="st4" d="M17.7,10.1L28.6,32H13.1C13.1,32,19.3,27.7,17.7,10.1L17.7,10.1z"/>
</g>
<g>
	<path class="st5" d="M45.9,15.6c0,0.4-0.1,0.7-0.3,0.9c-0.2,0.2-0.5,0.2-0.8,0.2h-3.3c-0.3,0-0.6-0.1-0.8-0.2
		c-0.2-0.2-0.3-0.5-0.3-0.9v-3.3c0-0.2,0-0.4-0.1-0.5c-0.1-0.1-0.1-0.2-0.2-0.3c-0.1-0.1-0.2-0.1-0.3-0.2c-0.1-0.1-0.2-0.1-0.2-0.2
		c0-0.1,0-0.1,0-0.2c0-0.1,0.1-0.1,0.2-0.1h5.8c0.1,0,0.1,0,0.2,0.1c0,0,0.1,0.1,0.1,0.2V15.6L45.9,15.6z M41.6,17.9l2.2,0.2
		c0.2,0.1,0.2,0.2,0.2,0.3c0,0.3,0,1,0,2.1c0,0.3,0.1,0.5,0.1,0.7c0.1,0.1,0.3,0.2,0.6,0.2h4.4c0.3,0,0.5,0.2,0.5,0.5
		c0,0.3-0.2,0.5-0.5,0.5h-5.6c-0.2,0-0.5-0.1-0.8-0.3c-0.3-0.2-0.4-0.5-0.4-1.1c0-0.2,0-0.9,0-1.9c0-0.2-0.1-0.4-0.3-0.5
		c-0.2-0.1-0.4-0.2-0.5-0.2c-0.1-0.1-0.2-0.2-0.1-0.3C41.5,18,41.5,17.9,41.6,17.9L41.6,17.9z M44.2,11.8h-2.1v3.4
		c0,0.2,0,0.3,0.1,0.4c0,0.1,0.2,0.2,0.4,0.2h1.1c0.2,0,0.4,0,0.4-0.2c0-0.1,0.1-0.2,0.1-0.4V11.8L44.2,11.8z M49.4,18
		c0,0.3-0.1,0.6-0.2,0.8c-0.2,0.2-0.4,0.4-0.6,0.4h-0.5c-0.1,0-0.2,0-0.2-0.1c0-0.1-0.1-0.1-0.1-0.3v-7.7c0-0.3-0.1-0.5-0.3-0.6
		c-0.2-0.1-0.4-0.2-0.5-0.3c-0.1-0.1-0.1-0.2-0.1-0.3c0-0.1,0.1-0.2,0.2-0.2l2.2,0.3c0.1,0,0.2,0.1,0.2,0.1c0,0.1,0,0.1,0,0.2V18
		L49.4,18z"/>
	<path class="st5" d="M56.9,17.4v3.8c0,0.3-0.1,0.6-0.3,0.8c-0.2,0.2-0.4,0.4-0.6,0.4h-0.6c-0.1,0-0.2,0-0.2-0.1
		c-0.1,0-0.1-0.1-0.1-0.3v-4.6h-3.7c-0.2,0-0.3,0-0.4-0.1c0,0-0.1-0.1-0.2-0.2l-0.4-0.6c-0.1-0.2-0.1-0.3,0-0.4
		c0.1-0.1,0.2-0.1,0.3,0c0.2,0.1,0.4,0.2,0.5,0.2c0.1,0,0.4,0,0.7,0h9.1c0.4,0,0.5,0.2,0.5,0.5c0,0.3-0.2,0.5-0.5,0.5H56.9
		L56.9,17.4z M55.9,13c-0.5,0.5-1.1,1-1.8,1.4c-0.7,0.4-1.4,0.7-2,0.9c-0.3,0.1-0.5,0-0.6-0.1c-0.1-0.2,0-0.3,0.3-0.5
		c0.8-0.5,1.6-1.1,2.2-1.9c0.6-0.8,1-1.4,1.1-1.9h-2.3c-0.2,0-0.3,0-0.4,0c0,0-0.1-0.1-0.2-0.2l-0.4-0.6c-0.1-0.2-0.1-0.3,0-0.4
		c0.1-0.1,0.2-0.1,0.3,0c0.2,0.1,0.4,0.2,0.6,0.2c0.2,0,0.4,0,0.6,0h6.3c0.4,0,0.5,0.2,0.5,0.5c0,0.3-0.2,0.5-0.5,0.5h-2.4
		c-0.1,0.2-0.2,0.4-0.3,0.6c-0.1,0.2-0.3,0.4-0.4,0.7c0.3,0.2,0.6,0.3,0.8,0.4c0.2,0.1,0.4,0.1,0.6,0.2c0.2,0.1,0.5,0.1,0.7,0.1
		c0.2,0,0.4,0.1,0.5,0.2c0.3,0.2,0.6,0.5,0.9,0.9c0.3,0.4,0.4,0.7,0.3,1c-0.1,0.2-0.2,0.3-0.3,0.3c-0.1,0-0.3,0-0.6-0.1
		c-0.5-0.1-1-0.4-1.6-0.8C57.2,14.1,56.6,13.6,55.9,13L55.9,13z"/>
	<path class="st5" d="M65.4,15.6c-0.4,0.8-0.9,1.4-1.4,2.1c-0.5,0.6-1,1.1-1.5,1.4c-0.2,0.1-0.3,0.1-0.4,0c-0.1-0.1-0.1-0.3,0.1-0.5
		c0.8-0.9,1.4-2.1,2-3.4c0.5-1.3,0.8-2.5,0.8-3.4c0-0.2-0.2-0.4-0.5-0.6c-0.3-0.2-0.5-0.3-0.6-0.3c-0.1,0-0.1-0.1-0.1-0.3
		c0-0.1,0.1-0.2,0.2-0.2l2.6,0.2c0.2,0,0.3,0.1,0.3,0.2c0,0.1,0,0.3,0,0.4c-0.1,0.6-0.2,1.2-0.4,1.7c-0.2,0.6-0.4,1.1-0.6,1.7l0,0
		c0.1,0.2,0.3,0.4,0.6,0.6c0.2,0.3,0.5,0.5,0.7,0.6c0.2,0.2,0.4,0.3,0.6,0.3c0.1,0,0.3,0.1,0.4,0.3c0.3,0.5,0.6,0.9,0.7,1.3
		c0.1,0.4,0.1,0.7,0,0.9c-0.1,0.1-0.2,0.2-0.4,0.2c-0.2,0-0.4-0.1-0.6-0.3c-0.4-0.3-0.8-0.8-1.2-1.4C66,16.6,65.7,16,65.4,15.6
		L65.4,15.6L65.4,15.6z M71.5,14.4l1.4-0.1c0.2,0,0.4,0.2,0.4,0.6c0,0.4-0.1,0.6-0.4,0.6c-0.9,0-1.4,0-1.4,0v5.9
		c0,0.3-0.1,0.6-0.2,0.8c-0.2,0.2-0.4,0.4-0.6,0.4h-0.5c-0.1,0-0.2,0-0.2-0.1c0,0-0.1-0.1-0.1-0.3V10.8c0-0.3-0.1-0.5-0.3-0.6
		c-0.2-0.1-0.4-0.2-0.5-0.3c-0.1-0.1-0.1-0.2-0.1-0.3c0-0.1,0.1-0.2,0.2-0.2l2.2,0.3c0.1,0,0.2,0.1,0.2,0.1c0,0.1,0,0.1,0,0.2V14.4
		L71.5,14.4z"/>
	<path class="st5" d="M78.4,17.1c0,0.3,0,0.5,0,0.9c0,0.3,0,0.6,0,0.6c0.1,0,0.2,0,0.4,0c0.7,0,1.3,0,1.8-0.1
		c0.4-0.1,0.8-0.2,1.1-0.4v-7.2c0-0.3-0.1-0.5-0.3-0.6c-0.2-0.1-0.4-0.2-0.5-0.3c-0.1-0.1-0.1-0.2-0.1-0.3c0-0.1,0.1-0.2,0.2-0.2
		l2.2,0.3c0.1,0,0.2,0.1,0.2,0.1c0,0.1,0,0.1,0,0.2v11.5c0,0.3-0.1,0.6-0.2,0.8c-0.2,0.2-0.4,0.4-0.6,0.4H82c-0.1,0-0.2,0-0.2-0.1
		c0,0-0.1-0.1-0.1-0.3V19c-0.3,0.2-0.6,0.4-1,0.5c-0.4,0.1-0.9,0.1-1.6,0.1c0,0-1.5,0-4.6,0c-0.2,0-0.3,0-0.3,0
		c-0.1,0-0.1-0.1-0.2-0.1l-0.4-0.7c-0.1-0.1-0.1-0.2,0-0.3c0.1-0.1,0.1-0.1,0.3-0.1c0.2,0.1,0.4,0.2,0.5,0.2c0.2,0,0.4,0,0.7,0
		c0.7,0,1.2,0,1.6,0v-1.5c-0.6-0.2-1-0.5-1.4-1c-0.4-0.5-0.6-1.1-0.6-1.8c0-0.4,0.1-0.7,0.2-1c0.1-0.3,0.3-0.6,0.5-0.8h-0.7
		c-0.2,0-0.3,0-0.4-0.1c-0.1,0-0.1-0.1-0.2-0.2l-0.4-0.6c-0.1-0.2-0.1-0.3,0-0.4c0.1-0.1,0.2-0.1,0.3,0c0.2,0.1,0.3,0.1,0.4,0.2
		c0.1,0,0.3,0.1,0.5,0.1h1.7c0-0.3,0-0.6,0-0.8c0-0.3-0.1-0.4-0.3-0.5c-0.2-0.1-0.3-0.3-0.2-0.4c0-0.1,0.1-0.2,0.3-0.2l1.7,0.2
		c0.1,0,0.2,0,0.2,0.1c0,0.1,0.1,0.1,0.1,0.3l0,1.4h2.2c0.4,0,0.5,0.2,0.5,0.5c0,0.3-0.2,0.5-0.5,0.5h-0.9c0.2,0.2,0.4,0.5,0.5,0.8
		c0.1,0.3,0.2,0.7,0.2,1c0,0.7-0.2,1.3-0.6,1.7C79.5,16.6,79,16.9,78.4,17.1L78.4,17.1z M76.4,14.3c0,0.5,0.1,1,0.3,1.3
		c0.2,0.4,0.5,0.5,0.8,0.5c0.3,0,0.6-0.2,0.8-0.5c0.2-0.4,0.4-0.8,0.4-1.3c0-0.5-0.1-1-0.3-1.3c-0.2-0.4-0.5-0.5-0.8-0.5
		c-0.3,0-0.6,0.2-0.8,0.5C76.5,13.4,76.4,13.8,76.4,14.3L76.4,14.3z"/>
	<path class="st5" d="M85.4,16.7c-0.2,0-0.3,0-0.4,0c0,0-0.1-0.1-0.2-0.2l-0.4-0.6c-0.1-0.2-0.1-0.3,0-0.4c0.1-0.1,0.2-0.1,0.3,0
		c0.2,0.1,0.4,0.2,0.5,0.2c0.1,0,0.4,0,0.7,0h9.1c0.4,0,0.5,0.2,0.5,0.5c0,0.3-0.2,0.5-0.5,0.5H85.4L85.4,16.7z M93.6,17.6
		c0.1,0,0.2,0,0.2,0.1c0,0,0.1,0.1,0.1,0.2v2c0,0.2,0,0.3-0.2,0.4c-0.1,0.1-0.2,0.2-0.4,0.2h-5.3v0.6c0,0.1,0,0.2,0,0.2
		c0,0,0.1,0.1,0.2,0.1h5.3c0.3,0,0.4,0.2,0.4,0.5c0,0.3-0.1,0.5-0.4,0.5h-6c-0.6,0-1-0.1-1.2-0.4c-0.2-0.3-0.2-0.6-0.2-1v-0.2
		c0-0.4-0.1-0.6-0.4-0.6c-0.3-0.1-0.4-0.2-0.4-0.3c0-0.1,0-0.2,0.1-0.2c0,0,0.1,0,0.1,0h6.3v-1c0,0-1.8,0-5.4,0
		c-0.2,0-0.3,0-0.4-0.1c-0.1,0-0.1-0.1-0.2-0.2l-0.4-0.6c-0.1-0.1-0.1-0.2,0-0.3c0.1-0.1,0.1-0.1,0.2-0.1c0.2,0.1,0.3,0.2,0.5,0.2
		c0.1,0.1,0.3,0.1,0.6,0.1H93.6L93.6,17.6z M86.7,10.9c-0.2,0-0.3,0-0.4-0.1c-0.1,0-0.1-0.1-0.2-0.2L85.7,10c-0.1-0.1-0.1-0.2,0-0.3
		c0.1-0.1,0.1-0.1,0.2-0.1c0.2,0.1,0.3,0.2,0.5,0.2C86.5,9.9,86.7,10,87,10h6.8c0.1,0,0.2,0,0.2,0.1c0,0.1,0,0.1,0,0.2
		c0,0.6,0,1.3,0,2.1c0,0.2,0,0.3-0.1,0.4c-0.1,0.1-0.2,0.1-0.4,0.1h-5.3v0.5c0,0.2,0,0.3,0.1,0.3c0.1,0.1,0.2,0.1,0.3,0.1h5.1
		c0.3,0,0.5,0.2,0.5,0.5c0,0.3-0.2,0.5-0.5,0.5h-6.4c-0.3,0-0.5-0.1-0.8-0.3c-0.2-0.2-0.3-0.5-0.3-0.9V13c0-0.3-0.1-0.5-0.4-0.6
		c-0.2-0.1-0.4-0.2-0.4-0.3c0-0.1,0-0.1,0.1-0.2c0,0,0.1,0,0.1,0h6.3v-1H86.7L86.7,10.9z"/>
	<path class="st5" d="M106.4,16.8c-0.3,0.1-0.6,0.3-0.9,0.3c-0.3,0.1-0.8,0.1-1.3,0.1h-1.1V21c0,0.3-0.1,0.6-0.2,0.8
		c-0.2,0.2-0.4,0.4-0.6,0.4h-0.5c-0.1,0-0.2,0-0.2-0.1c0-0.1-0.1-0.1-0.1-0.3v-4.5h-2.1c-0.2,0-0.3,0-0.4-0.1
		c-0.1,0-0.1-0.1-0.2-0.2l-0.4-0.7c-0.1-0.1-0.1-0.2,0-0.3c0.1-0.1,0.1-0.1,0.3,0c0.2,0.1,0.3,0.2,0.5,0.2c0.1,0,0.4,0,0.7,0h4.3
		c0.7,0,1.2,0,1.5-0.1c0.3,0,0.6-0.1,0.8-0.2v-5.2c0-0.3-0.1-0.5-0.3-0.6c-0.2-0.1-0.4-0.2-0.5-0.3c-0.1-0.1-0.2-0.2-0.1-0.3
		c0-0.1,0.1-0.2,0.2-0.2l2.2,0.3c0.1,0,0.2,0.1,0.2,0.1c0,0.1,0,0.1,0,0.2v11.5c0,0.3-0.1,0.6-0.2,0.8c-0.2,0.2-0.4,0.4-0.6,0.4
		h-0.5c-0.1,0-0.2,0-0.2-0.1c0,0-0.1-0.1-0.1-0.3V16.8L106.4,16.8z M102.2,10c0.8,0,1.5,0.3,2,0.8c0.6,0.5,0.8,1.1,0.8,1.9
		c0,0.7-0.3,1.4-0.8,1.9c-0.6,0.5-1.2,0.8-2,0.8c-0.8,0-1.5-0.3-2-0.8c-0.6-0.5-0.8-1.2-0.8-1.9c0-0.7,0.3-1.4,0.8-1.9
		C100.7,10.3,101.4,10,102.2,10L102.2,10z M101,12.7c0,0.5,0.1,0.8,0.4,1.2c0.2,0.3,0.5,0.5,0.8,0.5c0.3,0,0.6-0.2,0.9-0.5
		c0.2-0.3,0.4-0.7,0.4-1.2c0-0.4-0.1-0.8-0.4-1.1c-0.3-0.3-0.5-0.5-0.8-0.5c-0.3,0-0.6,0.2-0.8,0.5C101.1,11.8,101,12.2,101,12.7
		L101,12.7z"/>
	<path class="st5" d="M111,12.4h-0.9c-0.2,0-0.3,0-0.4-0.1c-0.1,0-0.1-0.1-0.2-0.2l-0.4-0.7c-0.1-0.2-0.1-0.3,0-0.4
		c0.1-0.1,0.2-0.1,0.3,0c0.2,0.1,0.4,0.2,0.5,0.2c0.2,0,0.4,0.1,0.7,0.1h1.7v-0.4c0-0.2,0-0.3,0-0.4c0-0.1-0.1-0.2-0.3-0.4
		c-0.2-0.1-0.2-0.3-0.2-0.4c0-0.1,0.1-0.2,0.2-0.2l1.7,0.2c0.1,0,0.1,0,0.2,0.1c0.1,0,0.1,0.1,0.1,0.2l0,1.3h2.4
		c0.3,0,0.5,0.2,0.4,0.5c0,0.3-0.2,0.5-0.4,0.5h-1.2c0.2,0.3,0.4,0.6,0.6,0.9c0.1,0.3,0.2,0.7,0.2,1c0,0.8-0.3,1.5-0.9,2
		c-0.6,0.6-1.2,0.8-2,0.8c-0.7,0-1.4-0.3-2-0.8c-0.6-0.6-0.9-1.2-0.9-2c0-0.4,0.1-0.7,0.2-1C110.6,13,110.8,12.7,111,12.4L111,12.4z
		 M111.5,18.1l2.2,0.2c0.2,0.1,0.2,0.2,0.2,0.3c0,0.3,0,0.9,0,2c0,0.3,0.1,0.5,0.1,0.7c0.1,0.1,0.3,0.2,0.6,0.2h4.2
		c0.3,0,0.5,0.2,0.5,0.5c0,0.3-0.2,0.5-0.5,0.5h-5.5c-0.2,0-0.5-0.1-0.8-0.3c-0.3-0.2-0.4-0.5-0.4-1.1c0-0.2,0-0.8,0-1.8
		c0-0.2-0.1-0.4-0.3-0.5c-0.2-0.1-0.4-0.2-0.5-0.2c-0.1-0.1-0.2-0.2-0.1-0.3C111.3,18.2,111.4,18.1,111.5,18.1L111.5,18.1z
		 M112,14.3c0,0.5,0.1,0.9,0.3,1.3c0.2,0.4,0.5,0.5,0.7,0.5c0.3,0,0.5-0.2,0.7-0.5c0.2-0.4,0.3-0.8,0.3-1.3c0-0.5-0.1-0.9-0.3-1.3
		c-0.2-0.4-0.5-0.6-0.7-0.6c-0.3,0-0.5,0.2-0.7,0.6C112.1,13.4,112,13.9,112,14.3L112,14.3z M119.2,13.4l1.4-0.1
		c0.3,0,0.4,0.2,0.4,0.6c0,0.4-0.1,0.6-0.4,0.6h-1.4V18c0,0.3-0.1,0.6-0.2,0.8c-0.2,0.2-0.4,0.4-0.6,0.4h-0.4c-0.1,0-0.2,0-0.2-0.1
		c0-0.1-0.1-0.1-0.1-0.3v-7.7c0-0.3-0.1-0.5-0.3-0.6c-0.2-0.1-0.4-0.2-0.5-0.3c-0.1-0.1-0.1-0.2-0.1-0.3c0-0.1,0.1-0.2,0.2-0.2
		L119,10c0.1,0,0.2,0.1,0.2,0.1c0,0.1,0,0.1,0,0.2V13.4L119.2,13.4z"/>
	<path class="st5" d="M126.1,12.8h2.1v-1c0-0.3-0.1-0.5-0.2-0.6c-0.1-0.1-0.3-0.2-0.4-0.3c-0.2-0.1-0.2-0.2-0.2-0.3
		c0-0.1,0.1-0.2,0.2-0.2l2,0.3c0.1,0,0.2,0.1,0.2,0.1c0,0.1,0,0.1,0,0.1v1c0.1,0,0.2,0,0.4,0.1c0.1,0.1,0.3,0.1,0.4,0.1h1v-1
		c0-0.3-0.1-0.5-0.3-0.6c-0.2-0.1-0.4-0.2-0.5-0.3c-0.1-0.1-0.2-0.2-0.1-0.3c0-0.1,0.1-0.2,0.2-0.2l2.2,0.3c0.1,0,0.2,0.1,0.2,0.1
		c0,0.1,0,0.1,0,0.2V18c0,0.3-0.1,0.6-0.2,0.8c-0.2,0.2-0.4,0.4-0.6,0.4H132c-0.1,0-0.2,0-0.2-0.1c0-0.1-0.1-0.1-0.1-0.3v-3.1
		c-0.2,0-0.4,0-0.6,0c-0.2,0-0.5,0-0.7,0c0,0-0.1,0-0.1,0c0,0-0.1-0.1-0.1-0.1l-0.3-0.4v0.7c0,0.4-0.1,0.7-0.3,0.9
		c-0.2,0.2-0.5,0.2-0.8,0.2h-3.2c-0.3,0-0.6-0.1-0.8-0.2c-0.2-0.2-0.3-0.5-0.3-0.9v-3.8c0-0.3-0.1-0.5-0.2-0.6
		c-0.2-0.1-0.3-0.2-0.4-0.3c-0.2-0.1-0.2-0.2-0.2-0.3c0-0.1,0.1-0.2,0.2-0.2l2,0.3c0.1,0,0.2,0.1,0.3,0.3V12.8L126.1,12.8z
		 M125.6,18.1l2.2,0.2c0.2,0.1,0.2,0.2,0.2,0.3c0,0.3,0,0.9,0,1.9c0,0.3,0.1,0.5,0.1,0.7c0.1,0.1,0.3,0.2,0.6,0.2h4.3
		c0.3,0,0.5,0.2,0.5,0.5c0,0.3-0.2,0.5-0.5,0.5h-5.5c-0.2,0-0.5-0.1-0.8-0.3c-0.3-0.2-0.4-0.5-0.4-1.1c0-0.2,0-0.8,0-1.8
		c0-0.2-0.1-0.4-0.3-0.5c-0.2-0.1-0.4-0.2-0.5-0.2c-0.1-0.1-0.2-0.2-0.1-0.3C125.5,18.2,125.5,18.1,125.6,18.1L125.6,18.1z
		 M128.2,13.8h-2.1v1.8c0,0.2,0,0.3,0.1,0.4c0,0.1,0.2,0.2,0.4,0.2h1.1c0.2,0,0.4-0.1,0.4-0.2c0-0.1,0.1-0.3,0.1-0.5V13.8
		L128.2,13.8z M129.9,12.7v1.7c0.1,0,0.2,0,0.4,0.1c0.1,0.1,0.3,0.1,0.4,0.1h1v-1.4c-0.2,0-0.4,0-0.6,0c-0.2,0-0.5,0-0.7,0
		c0,0-0.1,0-0.1,0c0,0-0.1-0.1-0.1-0.1C130,12.8,129.9,12.7,129.9,12.7L129.9,12.7z"/>
	<path class="st5" d="M144.3,21.7H135c-0.2,0-0.4,0-0.4-0.1c-0.1,0-0.1-0.1-0.2-0.2l-0.4-0.7c-0.1-0.2-0.1-0.3,0-0.4
		c0.1-0.1,0.2-0.1,0.3,0c0.2,0.1,0.4,0.2,0.5,0.3c0.1,0.1,0.4,0.1,0.7,0.1h3V20c0-0.3,0-0.5-0.1-0.6c-0.1-0.1-0.2-0.2-0.4-0.3
		c-0.2-0.1-0.2-0.2-0.2-0.3c0.1-0.1,0.1-0.2,0.2-0.2c1,0.1,1.6,0.1,2,0.1c0.1,0,0.1,0,0.1,0.1c0,0.1,0,0.1,0,0.2c0,0.2,0,0.4,0,0.8
		c0,0.3,0,0.7,0,0.9h4.1c0.4,0,0.5,0.2,0.5,0.5C144.8,21.5,144.6,21.7,144.3,21.7L144.3,21.7z M136.8,13.4h-1.2
		c-0.2,0-0.3,0-0.4-0.1c-0.1,0-0.1-0.1-0.2-0.2l-0.4-0.6c-0.1-0.2-0.1-0.3,0-0.4c0.1-0.1,0.2-0.1,0.3,0c0.2,0.1,0.4,0.2,0.5,0.2
		c0.2,0,0.4,0,0.7,0h2.3c0-0.4,0-0.7,0-0.9c0-0.2-0.1-0.4-0.3-0.5c-0.2-0.2-0.3-0.3-0.3-0.5c0-0.2,0.1-0.2,0.3-0.2l1.8,0.2
		c0.1,0,0.2,0,0.2,0.1c0,0.1,0.1,0.1,0.1,0.3l0,1.6h3.3c0.4,0,0.5,0.2,0.5,0.5c0,0.3-0.2,0.5-0.5,0.5h-1.6c0.3,0.3,0.5,0.5,0.6,0.9
		c0.2,0.3,0.2,0.7,0.2,1c0,0.8-0.3,1.5-1,2c-0.7,0.6-1.5,0.9-2.4,0.9c-0.9,0-1.7-0.3-2.4-0.9c-0.7-0.6-1-1.3-1-2
		c0-0.4,0.1-0.7,0.2-1C136.3,13.9,136.5,13.7,136.8,13.4L136.8,13.4z M140.9,15.3c0-0.5-0.2-0.9-0.5-1.3c-0.3-0.4-0.7-0.6-1.1-0.6
		c-0.4,0-0.8,0.2-1.1,0.6c-0.3,0.4-0.5,0.8-0.5,1.3c0,0.5,0.2,0.9,0.5,1.3c0.3,0.4,0.7,0.6,1.1,0.6c0.4,0,0.8-0.2,1.1-0.6
		C140.7,16.3,140.9,15.8,140.9,15.3L140.9,15.3z"/>
	<path class="st5" d="M148.2,15.6c-0.4,0.8-0.9,1.4-1.4,2.1c-0.5,0.6-1,1.1-1.5,1.4c-0.2,0.1-0.3,0.1-0.4,0
		c-0.1-0.1-0.1-0.3,0.1-0.5c0.8-0.9,1.4-2.1,2-3.4c0.5-1.3,0.8-2.5,0.8-3.4c0-0.2-0.2-0.4-0.5-0.6c-0.3-0.2-0.5-0.3-0.6-0.3
		c-0.1,0-0.1-0.1-0.1-0.3c0-0.1,0.1-0.2,0.2-0.2l2.6,0.2c0.2,0,0.3,0.1,0.3,0.2c0,0.1,0,0.3,0,0.4c-0.1,0.6-0.2,1.2-0.4,1.7
		c-0.2,0.6-0.4,1.1-0.6,1.7l0,0c0.1,0.2,0.3,0.4,0.6,0.6c0.2,0.3,0.5,0.5,0.7,0.6c0.2,0.2,0.4,0.3,0.6,0.3c0.1,0,0.3,0.1,0.4,0.3
		c0.3,0.5,0.6,0.9,0.7,1.3c0.1,0.4,0.1,0.7,0,0.9c-0.1,0.1-0.2,0.2-0.4,0.2c-0.2,0-0.4-0.1-0.6-0.3c-0.4-0.3-0.8-0.8-1.2-1.4
		C148.8,16.6,148.5,16,148.2,15.6L148.2,15.6L148.2,15.6z M154.2,14.4l1.4-0.1c0.2,0,0.4,0.2,0.4,0.6c0,0.4-0.1,0.6-0.4,0.6
		c-0.9,0-1.4,0-1.4,0v5.9c0,0.3-0.1,0.6-0.2,0.8c-0.2,0.2-0.4,0.4-0.6,0.4h-0.5c-0.1,0-0.2,0-0.2-0.1c0,0-0.1-0.1-0.1-0.3V10.8
		c0-0.3-0.1-0.5-0.3-0.6c-0.2-0.1-0.4-0.2-0.5-0.3c-0.1-0.1-0.1-0.2-0.1-0.3c0-0.1,0.1-0.2,0.2-0.2l2.2,0.3c0.1,0,0.2,0.1,0.2,0.1
		c0,0.1,0,0.1,0,0.2V14.4L154.2,14.4z"/>
	<path class="st5" d="M160.7,20.2v-1.4c0-0.3,0-0.5-0.1-0.6c-0.1-0.1-0.2-0.2-0.4-0.3c-0.2-0.1-0.2-0.2-0.2-0.3
		c0.1-0.1,0.1-0.2,0.2-0.2c1,0.1,1.6,0.1,2,0.2c0.1,0,0.1,0,0.1,0.1c0,0.1,0,0.1,0,0.2c0,0.2,0,0.5,0,1.1c0,0.5,0,1,0,1.3h4.1
		c0.4,0,0.5,0.2,0.5,0.5c0,0.3-0.2,0.5-0.5,0.5h-9.3c-0.2,0-0.4,0-0.4-0.1c-0.1,0-0.1-0.1-0.2-0.2l-0.4-0.7c-0.1-0.2-0.1-0.3,0-0.4
		c0.1-0.1,0.2-0.1,0.3,0c0.2,0.1,0.4,0.2,0.5,0.3c0.1,0.1,0.4,0.1,0.7,0.1H160.7L160.7,20.2z M165.3,15.7c0,0.3-0.1,0.5-0.2,0.6
		c-0.1,0.1-0.4,0.2-0.7,0.2h-5.6c-0.4,0-0.6-0.1-0.8-0.2c-0.1-0.1-0.2-0.4-0.2-0.6v-3.4c0-0.2,0-0.4-0.1-0.5
		c-0.1-0.1-0.1-0.2-0.2-0.3c-0.1-0.1-0.2-0.1-0.3-0.2c-0.1-0.1-0.2-0.1-0.2-0.2c0-0.1,0-0.1,0-0.2c0-0.1,0.1-0.1,0.2-0.1h8
		c0.1,0,0.1,0,0.2,0.1c0,0,0.1,0.1,0.1,0.2V15.7L165.3,15.7z M159.5,15.2c0,0.2,0,0.3,0.1,0.3c0.1,0.1,0.2,0.1,0.3,0.1h3.2
		c0.1,0,0.2,0,0.3-0.1c0.1-0.1,0.1-0.2,0.1-0.3v-3.4h-4V15.2L159.5,15.2z"/>
	<path class="st5" d="M169.7,10.1c0.9,0,1.6,0.3,2.1,0.9c0.6,0.6,0.9,1.4,0.9,2.2c0,0.9-0.3,1.6-0.9,2.2c-0.6,0.6-1.3,0.9-2.1,0.9
		c-0.9,0-1.6-0.3-2.1-0.9c-0.6-0.6-0.9-1.4-0.9-2.2c0-0.9,0.3-1.6,0.9-2.2C168.1,10.4,168.8,10.1,169.7,10.1L169.7,10.1z
		 M176.1,21.5c0,0.3-0.1,0.6-0.3,0.7c-0.2,0.2-0.4,0.2-0.6,0.2h-5.5c-0.2,0-0.4-0.1-0.6-0.2c-0.2-0.2-0.3-0.4-0.3-0.7v-2.3
		c0-0.2,0-0.4-0.1-0.5c-0.1-0.1-0.1-0.2-0.2-0.3c-0.1-0.1-0.2-0.1-0.3-0.2c-0.1-0.1-0.2-0.1-0.2-0.2c0-0.1,0-0.1,0-0.2
		c0-0.1,0.1-0.1,0.1-0.1h7.6c0.1,0,0.2,0,0.2,0.1c0,0,0.1,0.1,0.1,0.2V21.5L176.1,21.5z M168.4,13.2c0,0.6,0.1,1,0.4,1.5
		c0.2,0.4,0.6,0.6,0.9,0.6c0.4,0,0.7-0.2,0.9-0.6c0.2-0.4,0.4-0.9,0.4-1.5c0-0.6-0.1-1.1-0.4-1.5c-0.2-0.4-0.6-0.6-0.9-0.6
		c-0.4,0-0.7,0.2-0.9,0.6C168.5,12.2,168.4,12.7,168.4,13.2L168.4,13.2z M170.5,21.1c0,0.2,0,0.3,0.1,0.4c0.1,0.1,0.2,0.1,0.3,0.1h3
		c0.1,0,0.2,0,0.3-0.1c0.1-0.1,0.1-0.2,0.1-0.4v-2.4h-3.9V21.1L170.5,21.1z M174.5,11c0-0.3-0.1-0.5-0.3-0.6
		c-0.2-0.1-0.4-0.2-0.5-0.3c-0.1-0.1-0.1-0.2-0.1-0.3c0-0.1,0.1-0.2,0.2-0.2l2.2,0.3c0.1,0,0.2,0.1,0.2,0.1c0,0.1,0,0.1,0,0.2v5.8
		c0,0.3-0.1,0.6-0.2,0.8c-0.2,0.2-0.4,0.4-0.6,0.4h-0.5c-0.1,0-0.2,0-0.2-0.1c0-0.1-0.1-0.1-0.1-0.3V11L174.5,11z"/>
</g>
</svg>
