
<svg width="84" height="32" fill="none" id="_레이어_1" data-name="레이어 1" xmlns="http://www.w3.org/2000/svg" viewBox="0 0 84 32">
  <defs>
    <style>
      .cls-1 {
        opacity: .8;
      }

      .cls-1, .cls-2, .cls-3, .cls-4 {
        stroke-width: 0px;
      }

      .cls-1, .cls-2, .cls-4 {
        fill: #8c1e5a;
      }

      .cls-2 {
        opacity: .6;
      }

      .cls-3 {
        fill: #0f172a;
      }
    </style>
  </defs>
  <g>
    <path class="cls-3" d="M29.48,17.53V4.51h14.66v13.02h-14.66ZM31.75,27.74v-8.22h4.02v4.88h15.87v3.34h-19.89ZM40.15,7.8h-6.68v6.44h6.68v-6.44ZM47.35,21.06V3.87h4.02v17.19h-4.02Z"/>
    <path class="cls-3" d="M72.9,21.25v-5.66h-3.72v2.56h-14.15V4.24h3.99v3.77h6.17v-3.77h3.99v2.37h3.72v-2.75h4.02v17.38h-4.02ZM57.29,27.74v-7.98h4.01v4.64h15.87v3.34h-19.89ZM65.19,11.22h-6.17v3.64h6.17v-3.64ZM72.9,9.9h-3.72v2.4h3.72v-2.4Z"/>
  </g>
  <g>
    <path class="cls-1" d="M18.95,6.38c0,.85-.69,1.54-1.54,1.54s-1.54-.69-1.54-1.54.69-1.54,1.54-1.54,1.54.69,1.54,1.54h0Z"/>
    <path class="cls-2" d="M7.94,8.59c0,.85-.69,1.54-1.54,1.54s-1.54-.69-1.54-1.54.69-1.54,1.54-1.54,1.54.69,1.54,1.54h0Z"/>
    <path class="cls-2" d="M7.17,12.73l5.45,10.22h-7.75s3.08-2,2.3-10.22h0Z"/>
    <path class="cls-1" d="M19.2,10.32l5.61,10.96h-7.97s3.17-2.15,2.37-10.96h0Z"/>
    <path class="cls-4" d="M26.4,5.37c-.2-.74-1.48-.66-2.04-.53-.22.05-.43.16-.61.31-.08.07-.13.14-.16.2-.04.05-.1.11-.19.2-.37.34-.77.65-1.17.96-1.34,1.02-2.8,1.87-4.32,2.6-5.15,2.46-10.86,2.86-16.34,1.36-.56-.15-1.37-.15-1.85.22-.49.38.13.74.49.84,6.25,1.71,12.79,1.35,18.77-1.16,1.93-.81,3.77-1.88,5.45-3.12.28-.2,2.11-1.38,1.98-1.87h0Z"/>
    <path class="cls-4" d="M13.67,8.04c0,.87-.7,1.57-1.57,1.57s-1.57-.7-1.57-1.57.7-1.57,1.57-1.57,1.57.7,1.57,1.57h0Z"/>
    <path class="cls-4" d="M12.79,12.33l8.14,16.39h-11.57s4.59-3.21,3.43-16.39h0Z"/>
  </g>
</svg>