<?xml version="1.0" encoding="UTF-8"?>
<svg id="Layer_1" data-name="Layer 1" xmlns="http://www.w3.org/2000/svg" viewBox="0 0 396.18 79.34">
  <defs>
    <style>
      .cls-1, .cls-2, .cls-3, .cls-4, .cls-5 {
        stroke-width: 0px;
      }

      .cls-2 {
        fill: #343434;
      }

      .cls-3 {
        fill: gray;
      }

      .cls-4 {
        fill: #b5b5b5;
      }

      .cls-5 {
        fill: #333;
      }
    </style>
  </defs>
  <g>
    <g>
      <path class="cls-3" d="M57.34,7.33c0,2.5-2.03,4.54-4.54,4.54s-4.54-2.03-4.54-4.54,2.03-4.54,4.54-4.54,4.54,2.04,4.54,4.54h0Z"/>
      <path class="cls-4" d="M24.8,13.87c0,2.51-2.03,4.54-4.54,4.54s-4.54-2.04-4.54-4.54,2.03-4.54,4.54-4.54,4.54,2.03,4.54,4.54h0Z"/>
      <path class="cls-4" d="M22.56,26.09l16.1,30.17H15.77s9.09-5.91,6.79-30.17h0Z"/>
      <path class="cls-3" d="M58.07,18.98l16.56,32.37h-23.55s9.35-6.35,6.99-32.37h0Z"/>
      <path class="cls-2" d="M79.32,4.37c-.59-2.2-4.36-1.94-6.03-1.55-.66.15-1.27.47-1.79.91-.25.2-.39.4-.46.59-.11.14-.28.33-.56.59-1.1,1.01-2.27,1.93-3.45,2.83-3.96,3.02-8.27,5.53-12.76,7.68-15.2,7.26-32.05,8.44-48.25,4.02-1.65-.45-4.05-.45-5.47.64-1.46,1.12.39,2.18,1.44,2.47,18.46,5.04,37.76,4,55.42-3.44,5.69-2.4,11.12-5.55,16.1-9.21.82-.6,6.22-4.07,5.83-5.52h0Z"/>
      <path class="cls-2" d="M41.73,12.23c0,2.56-2.07,4.63-4.63,4.63s-4.63-2.07-4.63-4.63,2.08-4.63,4.63-4.63,4.63,2.07,4.63,4.63h0Z"/>
      <path class="cls-2" d="M39.15,24.91l24.03,48.39H29.01s13.57-9.48,10.13-48.39h0Z"/>
    </g>
    <path class="cls-1" d="M101.51,33.88c0,.97-.23,1.64-.7,2-.46.36-1.04.54-1.73.54h-7.29c-.67,0-1.24-.18-1.71-.54-.46-.36-.69-1.02-.69-2v-7.3c0-.46-.07-.83-.2-1.09-.13-.27-.29-.48-.47-.65-.25-.17-.48-.32-.72-.44-.23-.12-.35-.26-.35-.38,0-.13.03-.26.07-.4.05-.14.16-.2.35-.2h12.91c.19,0,.32.05.4.14.08.09.13.26.13.5v9.84h0ZM92.04,39.05l4.89.44c.33.15.5.39.5.73v4.66c.02.69.12,1.2.29,1.49.18.3.61.44,1.3.44h9.64c.73,0,1.09.34,1.09,1.03s-.36,1.03-1.09,1.03h-12.35c-.46,0-1.02-.19-1.68-.57-.65-.39-.98-1.17-.98-2.35v-4.28c0-.51-.23-.88-.7-1.11-.46-.23-.8-.41-1-.53-.3-.17-.4-.38-.32-.64.08-.25.21-.37.4-.34h0ZM97.77,25.47h-4.58v7.61c0,.4.05.72.14.94.09.22.41.33.95.33h2.43c.52,0,.83-.11.92-.33.09-.22.14-.54.14-.94v-7.61h0ZM109.31,39.14c0,.65-.18,1.25-.53,1.77-.35.53-.8.8-1.34.8h-1.09c-.24,0-.42-.06-.52-.17-.1-.12-.15-.31-.15-.59v-17.1c0-.66-.24-1.13-.72-1.43-.49-.29-.89-.54-1.2-.73-.25-.17-.32-.39-.24-.65.08-.27.21-.39.38-.37l4.89.64c.28.05.44.15.47.3.04.16.06.27.06.33v17.2h0Z"/>
    <path class="cls-1" d="M125.89,38.98v8.31c0,.66-.19,1.25-.57,1.78-.38.53-.83.79-1.35.79h-1.29c-.22,0-.39-.06-.5-.18-.11-.11-.17-.31-.17-.58v-10.12h-8.21c-.49,0-.77-.04-.87-.12-.09-.07-.21-.2-.37-.39l-.84-1.36c-.17-.36-.17-.63-.01-.83.16-.19.38-.2.65-.03.47.25.84.41,1.1.46.27.05.79.08,1.55.08h20.23c.8,0,1.2.37,1.2,1.09s-.4,1.1-1.2,1.1h-9.36ZM123.6,29.37c-1.17,1.18-2.52,2.25-4.04,3.2-1.52.96-2.99,1.63-4.4,2.03-.63.17-1.04.06-1.22-.32-.17-.38.03-.74.63-1.08,1.86-1.12,3.48-2.51,4.86-4.19,1.38-1.67,2.21-3.06,2.52-4.16h-5.03c-.48,0-.77-.04-.87-.11-.09-.07-.2-.2-.33-.4l-.92-1.33c-.15-.36-.14-.64.02-.83.16-.19.37-.2.63-.03.48.23.93.38,1.36.43.42.05.87.08,1.36.08h13.86c.8,0,1.2.37,1.2,1.1s-.4,1.09-1.2,1.09h-5.37c-.15.46-.37.94-.64,1.42-.28.47-.6.96-.95,1.44.73.44,1.31.75,1.74.92.44.17.85.31,1.22.41.52.13,1.01.21,1.47.24.45.03.83.14,1.13.33.65.42,1.31,1.05,1.98,1.89.67.84.89,1.59.64,2.27-.17.44-.4.7-.7.76-.3.06-.76.01-1.39-.16-1.03-.27-2.18-.84-3.47-1.7-1.28-.86-2.64-1.96-4.08-3.31h0Z"/>
    <path class="cls-1" d="M144.65,34.41c-.93,1.67-1.97,3.19-3.13,4.54-1.16,1.35-2.28,2.42-3.38,3.2-.39.25-.72.25-.99-.02-.27-.27-.19-.65.23-1.15,1.73-2.05,3.18-4.56,4.35-7.49,1.16-2.94,1.78-5.43,1.85-7.46,0-.53-.34-.98-1.02-1.36-.68-.38-1.11-.59-1.3-.63-.21-.09-.3-.28-.28-.59.02-.3.18-.45.48-.43l5.76.44c.35.03.56.17.63.46.07.29.08.58.04.9-.15,1.29-.42,2.58-.79,3.84-.39,1.27-.85,2.49-1.42,3.68l.03.03c.28.38.69.86,1.23,1.43.54.56,1.03,1.01,1.48,1.33.5.36.91.58,1.23.65.31.07.59.29.81.65.73,1.02,1.22,1.96,1.48,2.84.26.88.24,1.53-.08,1.95-.21.28-.52.42-.94.44s-.86-.17-1.33-.57c-.78-.66-1.67-1.7-2.66-3.14-1-1.44-1.75-2.61-2.25-3.52l-.03-.03h0ZM157.98,31.62l3.04-.26c.54-.05.82.41.83,1.35.01.94-.26,1.41-.83,1.41-2.03,0-3.04.01-3.04.04v13.13c0,.66-.18,1.25-.53,1.78-.35.53-.8.79-1.34.79h-1.03c-.22,0-.39-.06-.5-.18-.11-.11-.17-.31-.17-.58v-25.26c0-.66-.23-1.13-.71-1.43-.48-.29-.87-.54-1.19-.73-.24-.17-.33-.39-.25-.65.07-.27.21-.39.39-.37l4.81.64c.28.05.44.15.48.3.04.16.06.27.06.33v9.68h0Z"/>
    <path class="cls-1" d="M173.4,37.65v3.36h.89c1.62,0,2.92-.05,3.88-.17.97-.12,1.81-.44,2.52-.97v-16.03c0-.66-.24-1.13-.71-1.43-.47-.29-.87-.54-1.19-.73-.25-.17-.33-.39-.25-.65.07-.27.2-.39.39-.37l4.81.64c.28.05.43.15.48.3.04.16.05.27.05.33v25.35c0,.66-.17,1.25-.53,1.78-.36.53-.8.79-1.34.79h-1.03c-.22,0-.39-.06-.5-.18-.11-.11-.17-.31-.17-.58v-7.17c-.56.51-1.28.85-2.15,1.03-.88.18-2.07.27-3.6.27h-10.09c-.37,0-.62-.02-.77-.05-.14-.03-.27-.14-.4-.33l-.98-1.62c-.13-.24-.13-.44.01-.63.14-.19.33-.23.57-.13.41.23.8.38,1.18.44.37.07.89.1,1.56.1h3.63v-3.36c-1.25-.38-2.3-1.12-3.16-2.22-.86-1.1-1.29-2.39-1.29-3.87,0-.8.14-1.56.42-2.27.28-.71.67-1.33,1.18-1.86h-1.59c-.41,0-.67-.04-.79-.13-.12-.08-.26-.23-.41-.44l-.92-1.36c-.19-.43-.19-.72-.02-.86.18-.15.37-.14.57.03.35.19.69.33.99.41.31.08.71.13,1.21.13h3.85c0-.65-.03-1.27-.08-1.84-.05-.57-.26-.95-.61-1.14-.41-.27-.59-.55-.53-.84.05-.29.25-.41.59-.37l3.83.38c.2.02.35.1.45.24.09.14.13.32.11.56l-.06,3.01h4.92c.78,0,1.17.37,1.17,1.11s-.39,1.11-1.17,1.11h-1.96c.49.53.87,1.15,1.16,1.86.29.71.43,1.46.43,2.27,0,1.48-.44,2.77-1.31,3.86-.88,1.09-1.96,1.84-3.24,2.24h0ZM168.96,31.59c0,1.17.26,2.14.77,2.94.51.79,1.1,1.19,1.77,1.19.71,0,1.32-.4,1.85-1.19.52-.79.78-1.77.78-2.94s-.26-2.14-.77-2.93c-.51-.8-1.11-1.2-1.8-1.2s-1.3.4-1.82,1.2c-.52.79-.78,1.77-.78,2.93h0Z"/>
    <path class="cls-1" d="M188.87,36.74c-.48,0-.77-.03-.87-.09-.09-.06-.21-.2-.36-.41l-.89-1.34c-.17-.36-.17-.63-.02-.82.16-.19.38-.2.66-.04.47.26.84.4,1.12.45.28.04.81.06,1.59.06h20.11c.8,0,1.2.37,1.2,1.1s-.4,1.1-1.2,1.1h-21.34ZM206.97,38.8c.2,0,.35.05.43.15.08.09.12.26.12.49v4.38c0,.38-.11.71-.33.98-.22.27-.49.41-.81.41h-11.62v1.26c0,.19.04.34.1.45.06.1.2.18.4.22h11.82c.63,0,.95.35.95,1.04s-.32,1.05-.95,1.05h-13.19c-1.37,0-2.23-.3-2.57-.9-.33-.6-.5-1.34-.5-2.2v-.41c0-.8-.28-1.27-.84-1.42-.56-.13-.84-.38-.84-.71,0-.21.05-.34.14-.4.09-.05.19-.08.31-.08h13.97v-2.22s-3.96,0-11.93,0c-.41,0-.7-.04-.87-.13-.17-.08-.33-.22-.47-.41l-.84-1.43c-.15-.21-.17-.43-.06-.65.11-.22.28-.27.5-.14.41.19.77.35,1.09.48.32.13.75.19,1.29.19h14.7ZM191.63,24.01c-.41,0-.7-.04-.87-.13-.17-.08-.33-.22-.47-.41l-.84-1.49c-.15-.21-.17-.42-.06-.65.11-.22.28-.27.5-.15.41.19.77.35,1.09.48.32.13.75.19,1.29.19h14.95c.2,0,.33.06.39.19.06.13.08.3.08.51v4.57c0,.4-.09.71-.28.92-.19.21-.45.32-.78.32h-11.71v1.11c0,.34.1.57.3.71.19.14.43.21.71.21h11.37c.67,0,1.01.35,1.01,1.05s-.33,1.04-1.01,1.04h-14.08c-.62-.04-1.17-.28-1.66-.72-.49-.43-.75-1.1-.77-2.01v-1.14c0-.72-.27-1.14-.81-1.27-.54-.13-.81-.33-.81-.63,0-.19.04-.31.13-.35.09-.05.18-.07.3-.07h13.99v-2.28h-11.96Z"/>
    <path class="cls-1" d="M235.34,37.11c-.56.32-1.23.57-2,.76-.77.19-1.76.29-2.95.29h-2.35v8.19c0,.65-.18,1.24-.53,1.78-.35.53-.8.79-1.34.79h-1.2c-.24,0-.41-.06-.52-.17-.1-.12-.16-.31-.16-.59v-9.99h-4.63c-.41,0-.7-.05-.86-.14-.16-.1-.31-.24-.46-.43l-.81-1.46c-.13-.28-.13-.52,0-.73.12-.21.31-.23.57-.06.41.23.77.38,1.09.44.31.06.82.09,1.51.09h9.41c1.5,0,2.63-.05,3.35-.14.73-.1,1.35-.25,1.87-.46v-11.43c0-.66-.24-1.13-.73-1.43-.48-.29-.87-.54-1.17-.73-.26-.17-.35-.39-.26-.65.08-.27.21-.39.4-.37l4.86.64c.3.05.47.15.51.3.04.16.05.27.05.33v25.35c0,.66-.18,1.25-.54,1.78-.37.53-.82.79-1.36.79h-1.09c-.22,0-.39-.06-.5-.18-.11-.11-.17-.31-.17-.58v-11.99h0ZM225.87,22.01c1.73,0,3.22.57,4.47,1.71,1.24,1.14,1.87,2.53,1.87,4.15s-.63,3-1.87,4.16c-1.25,1.16-2.74,1.75-4.47,1.75s-3.21-.58-4.43-1.75c-1.22-1.16-1.83-2.55-1.83-4.16s.61-3.01,1.83-4.15c1.22-1.14,2.7-1.71,4.43-1.71h0ZM223.21,27.87c0,1,.26,1.85.78,2.57.53.72,1.15,1.08,1.88,1.08s1.38-.36,1.9-1.08c.52-.72.78-1.57.78-2.57s-.27-1.8-.82-2.49c-.55-.69-1.17-1.03-1.86-1.03s-1.28.34-1.83,1.03c-.55.69-.83,1.52-.83,2.49h0Z"/>
    <path class="cls-1" d="M245.34,26.72h-2.01c-.41,0-.68-.04-.8-.14-.12-.1-.26-.24-.4-.43l-.87-1.46c-.25-.42-.27-.72-.08-.87.18-.16.4-.15.64.02.41.23.78.39,1.13.47s.86.13,1.55.13h3.69v-.99c0-.36-.04-.66-.11-.92-.08-.25-.29-.53-.64-.83-.39-.32-.55-.61-.48-.89.08-.27.26-.39.54-.35l3.86.38c.15.02.28.08.4.17.12.09.18.26.18.5l-.03,2.92h5.31c.67,0,1,.38.99,1.14,0,.76-.34,1.14-.99,1.14h-2.6c.5.6.91,1.26,1.23,1.99.32.73.47,1.5.47,2.3,0,1.74-.65,3.23-1.94,4.47-1.29,1.25-2.76,1.88-4.4,1.88s-3.1-.63-4.37-1.88c-1.27-1.24-1.91-2.73-1.91-4.47,0-.8.15-1.57.46-2.3.31-.73.71-1.39,1.19-1.99h0ZM246.49,39.36l4.88.44c.36.15.53.4.53.73v4.35c.02.69.12,1.19.29,1.49.18.3.61.44,1.3.44h9.36c.74,0,1.11.34,1.11,1.03s-.37,1.03-1.11,1.03h-12.1c-.49,0-1.05-.19-1.69-.57-.65-.39-.97-1.17-.97-2.35v-3.97c0-.51-.24-.88-.69-1.11-.47-.23-.8-.41-1.01-.54-.3-.17-.41-.38-.32-.63.08-.25.22-.37.41-.35h0ZM247.61,31.01c0,1.1.24,2.05.73,2.86.48.8,1.03,1.21,1.65,1.21s1.16-.4,1.65-1.21c.49-.8.73-1.76.73-2.86s-.24-2.04-.73-2.89c-.49-.85-1.03-1.27-1.65-1.27s-1.17.42-1.65,1.27c-.49.85-.73,1.81-.73,2.89h0ZM263.53,28.92l3.04-.25c.56-.05.84.4.84,1.34s-.28,1.42-.84,1.42h-3.04v7.67c0,.66-.18,1.25-.53,1.78-.35.53-.8.79-1.34.79h-.97c-.25,0-.42-.06-.52-.17-.1-.12-.16-.31-.16-.59v-17.07c0-.66-.24-1.14-.73-1.44-.49-.29-.88-.54-1.2-.73-.24-.17-.32-.39-.24-.65.08-.26.21-.38.38-.36l4.77.63c.28.05.44.14.48.3.04.16.06.27.06.33v6.98h0Z"/>
    <path class="cls-1" d="M278.88,27.69h4.63v-2.22c0-.65-.16-1.11-.49-1.36-.32-.26-.65-.51-.96-.76-.34-.21-.47-.43-.39-.66.07-.24.22-.37.44-.38l4.5.63c.28.04.43.14.47.3.04.16.05.27.05.33v2.13c.22,0,.5.07.81.22.32.15.62.22.9.22h2.32v-2.28c0-.66-.24-1.13-.73-1.43-.49-.29-.88-.54-1.18-.73-.26-.17-.35-.39-.27-.65.08-.27.22-.39.4-.37l4.87.64c.3.05.45.15.49.3.03.16.04.27.04.33v17.17c0,.65-.18,1.25-.53,1.78-.36.53-.8.79-1.34.79h-1.09c-.24,0-.42-.06-.52-.18-.1-.11-.15-.31-.15-.59v-6.94h-2.94c-.11,0-.2-.03-.28-.08-.07-.06-.16-.14-.25-.24l-.56-.86v1.65c0,.97-.22,1.64-.7,2-.46.36-1.03.54-1.7.54h-7.07c-.67,0-1.24-.18-1.71-.54-.46-.36-.7-1.02-.7-2v-8.34c0-.66-.17-1.11-.5-1.37-.33-.26-.66-.51-.98-.76-.34-.21-.46-.44-.4-.67.06-.23.22-.36.46-.38l4.47.63c.3.05.48.28.56.7v3.43h0ZM277.68,39.46l4.89.44c.33.15.5.39.5.73v4.25c.02.69.12,1.2.29,1.49.18.3.62.44,1.33.44h9.47c.74,0,1.12.34,1.12,1.03s-.38,1.03-1.12,1.03h-12.18c-.48,0-1.04-.19-1.69-.57-.64-.39-.97-1.17-.97-2.35v-3.87c0-.51-.24-.88-.7-1.11-.46-.24-.81-.42-1.03-.54-.3-.17-.41-.38-.32-.63.08-.26.22-.37.41-.35h0ZM283.51,29.91h-4.63v3.91c0,.4.04.71.14.94.1.22.41.33.95.33h2.49c.52,0,.83-.14.92-.42.09-.27.14-.66.14-1.17v-3.59h0ZM287.14,27.4v3.71c.22,0,.5.07.81.22.32.15.62.22.9.22h2.32v-3.01h-2.94c-.11,0-.2-.03-.28-.08-.07-.05-.16-.13-.25-.24-.37-.57-.56-.84-.56-.82h0Z"/>
    <path class="cls-1" d="M318.93,45.96h-20.51c-.48,0-.8-.05-.95-.14-.15-.1-.28-.25-.4-.46l-.86-1.53c-.17-.36-.17-.63,0-.83.17-.19.38-.2.64-.03.46.26.86.44,1.18.57.31.13.85.19,1.61.19h6.63v-1.56c0-.65-.1-1.1-.3-1.32-.19-.22-.47-.46-.83-.72-.39-.19-.53-.42-.41-.69.12-.28.28-.41.46-.38,2.14.17,3.59.27,4.36.28.15,0,.25.08.31.22.06.15.08.28.08.38v3.78h8.97c.79,0,1.2.37,1.2,1.11s-.41,1.11-1.2,1.11h0ZM302.35,27.59h-2.71c-.41,0-.67-.04-.81-.12-.13-.08-.26-.24-.39-.44l-.95-1.36c-.19-.42-.19-.71,0-.86.18-.15.37-.14.56.03.41.23.8.38,1.17.45.37.06.89.09,1.56.09h5.13c0-.81-.02-1.46-.06-1.96-.05-.51-.26-.9-.63-1.18-.51-.36-.7-.71-.6-1.04.1-.34.32-.49.66-.44l4.08.35c.2.02.35.1.44.24.09.14.13.32.12.55l-.06,3.49h7.21c.78,0,1.17.37,1.17,1.11s-.39,1.11-1.17,1.11h-3.53c.58.57,1.04,1.21,1.37,1.94.33.72.5,1.48.5,2.28,0,1.76-.74,3.27-2.21,4.52-1.47,1.25-3.23,1.89-5.28,1.89s-3.78-.63-5.25-1.89c-1.47-1.26-2.21-2.77-2.21-4.52,0-.8.17-1.57.51-2.28.33-.73.78-1.37,1.36-1.94h0ZM311.49,31.81c0-1.12-.35-2.1-1.04-2.94-.7-.84-1.54-1.25-2.5-1.25s-1.78.42-2.47,1.25c-.71.84-1.05,1.82-1.05,2.94s.34,2.1,1.05,2.94c.69.83,1.52,1.25,2.47,1.25s1.8-.42,2.5-1.25c.69-.84,1.04-1.81,1.04-2.94h0Z"/>
    <path class="cls-1" d="M327.68,34.41c-.93,1.67-1.98,3.19-3.13,4.54-1.15,1.35-2.28,2.42-3.38,3.2-.39.25-.72.25-.99-.02-.27-.27-.19-.65.24-1.15,1.73-2.05,3.18-4.56,4.34-7.49,1.16-2.94,1.78-5.43,1.86-7.46,0-.53-.34-.98-1.02-1.36-.68-.38-1.11-.59-1.3-.63-.2-.09-.29-.28-.28-.59.02-.3.18-.45.48-.43l5.76.44c.35.03.56.17.63.46.06.29.08.58.04.9-.15,1.29-.41,2.58-.79,3.84-.38,1.27-.85,2.49-1.41,3.68l.03.03c.28.38.69.86,1.23,1.43.54.56,1.03,1.01,1.48,1.33.5.36.91.58,1.23.65.32.07.59.29.82.65.72,1.02,1.22,1.96,1.47,2.84.27.88.23,1.53-.08,1.95-.21.28-.52.42-.94.44-.42.02-.86-.17-1.32-.57-.79-.66-1.68-1.7-2.67-3.14-1-1.44-1.75-2.61-2.25-3.52l-.03-.03h0ZM341.01,31.62l3.05-.26c.54-.05.82.41.82,1.35.02.94-.26,1.41-.82,1.41-2.03,0-3.05.01-3.05.04v13.13c0,.66-.18,1.25-.53,1.78-.36.53-.8.79-1.35.79h-1.03c-.22,0-.39-.06-.51-.18-.11-.11-.17-.31-.17-.58v-25.26c0-.66-.24-1.13-.71-1.43-.48-.29-.87-.54-1.19-.73-.25-.17-.33-.39-.25-.65.07-.27.2-.39.39-.37l4.81.64c.28.05.43.15.47.3.04.16.06.27.06.33v9.68h0Z"/>
    <path class="cls-1" d="M355.19,43.73v-3.14c0-.65-.1-1.09-.29-1.32-.2-.23-.47-.46-.83-.71-.39-.19-.52-.42-.4-.7.12-.28.28-.4.46-.38,2.14.19,3.59.32,4.36.38.15.02.26.1.32.23.06.14.09.27.09.37v5.27h9.08c.8,0,1.2.38,1.2,1.11s-.4,1.11-1.2,1.11h-20.5c-.49,0-.8-.05-.96-.14-.15-.1-.27-.25-.39-.47l-.87-1.52c-.17-.36-.17-.63,0-.83.17-.19.38-.2.64-.03.46.26.86.44,1.18.57.32.12.86.19,1.62.19h6.48ZM365.44,33.83c0,.64-.16,1.11-.47,1.42-.32.31-.87.46-1.65.46h-12.49c-.82,0-1.4-.16-1.72-.48-.32-.31-.49-.78-.49-1.4v-7.62c0-.46-.06-.83-.18-1.09-.12-.27-.28-.48-.49-.65-.25-.17-.48-.31-.7-.44-.22-.13-.33-.26-.33-.38s.02-.26.05-.4c.04-.14.15-.2.34-.2h17.6c.18,0,.32.04.4.14.09.1.12.26.12.5v10.15h0ZM352.59,32.73c0,.33.06.57.18.72.12.13.34.2.66.2h7.18c.3,0,.51-.07.63-.22.11-.15.18-.39.18-.73v-7.55h-8.83v7.58h0Z"/>
    <path class="cls-1" d="M375.08,21.82c1.88,0,3.45.67,4.72,2.03,1.26,1.35,1.9,3,1.9,4.95s-.64,3.6-1.9,4.95c-1.27,1.36-2.84,2.03-4.72,2.03s-3.48-.67-4.73-2.03c-1.26-1.35-1.89-3-1.89-4.95s.63-3.59,1.89-4.95c1.25-1.35,2.84-2.03,4.73-2.03h0ZM389.28,47.14c-.02.72-.2,1.24-.56,1.58-.35.34-.8.51-1.34.51h-12.18c-.45,0-.88-.18-1.29-.53-.41-.35-.61-.88-.61-1.6v-5.01c0-.47-.07-.84-.2-1.1-.13-.26-.3-.48-.5-.65-.2-.17-.42-.31-.66-.44-.23-.13-.34-.25-.34-.38s.02-.26.07-.4c.05-.14.15-.2.32-.2h16.74c.2,0,.34.05.43.14.08.09.13.26.13.49v7.58h0ZM372.24,28.79c0,1.23.27,2.32.81,3.28.54.95,1.22,1.43,2.04,1.43s1.53-.48,2.05-1.43c.53-.96.79-2.05.79-3.28s-.26-2.33-.79-3.28c-.53-.94-1.22-1.41-2.05-1.41s-1.5.47-2.04,1.41c-.54.95-.81,2.04-.81,3.28h0ZM377.01,46.25c0,.36.09.63.27.8.17.18.4.28.68.28h6.62c.26,0,.49-.1.67-.3.18-.21.28-.47.28-.78v-5.4h-8.52v5.4h0ZM385.84,23.85c0-.66-.25-1.13-.73-1.43-.49-.29-.89-.54-1.2-.73-.25-.17-.32-.39-.24-.65.08-.27.21-.39.38-.37l4.94.64c.28.05.44.15.48.3.04.16.06.27.06.33v12.79c0,.66-.18,1.24-.53,1.77-.35.53-.8.8-1.34.8h-1.14c-.25,0-.42-.06-.52-.18-.1-.12-.15-.31-.15-.59v-12.69h0Z"/>
  </g>
  <g>
    <path class="cls-5" d="M90.54,58.12h2.13l3.17,10.21,3.15-10.21h2.12v12.07h-1.41v-7.12c0-.25,0-.66.02-1.23.01-.57.02-1.18.02-1.83l-3.16,10.18h-1.48l-3.17-10.18v.37c0,.29,0,.74.02,1.35.01.6.02,1.05.02,1.33v7.12h-1.41v-12.07h0Z"/>
    <polygon class="cls-5" points="103.7 58.12 105.2 58.12 105.2 70.19 103.7 70.19 103.7 58.12 103.7 58.12"/>
    <polygon class="cls-5" points="107.56 58.12 109.31 58.12 114.87 67.89 114.87 58.12 116.28 58.12 116.28 70.19 114.61 70.19 108.98 60.43 108.98 70.19 107.56 70.19 107.56 58.12 107.56 58.12"/>
    <path class="cls-5" d="M118.59,58.12h4.78c1.31,0,2.23.42,2.79,1.27.32.5.48,1.08.48,1.73,0,.76-.2,1.39-.59,1.88-.21.26-.5.5-.88.71.56.24.98.51,1.27.8.5.52.74,1.25.74,2.17,0,.78-.23,1.48-.68,2.11-.67.94-1.74,1.41-3.21,1.41h-4.71v-12.07h0ZM122.82,63.23c.64,0,1.14-.1,1.49-.29.56-.3.84-.85.84-1.63s-.3-1.32-.89-1.6c-.34-.15-.84-.23-1.5-.23h-2.71v3.75h2.76ZM123.32,68.79c.92,0,1.58-.29,1.97-.87.25-.37.37-.81.37-1.33,0-.88-.36-1.47-1.08-1.79-.39-.17-.89-.25-1.53-.25h-2.99v4.24h3.25Z"/>
    <polygon class="cls-5" points="127.97 58.12 129.73 58.12 132.91 63.92 136.08 58.12 137.84 58.12 133.66 65.33 133.66 70.19 132.16 70.19 132.16 65.33 127.97 58.12 127.97 58.12"/>
    <path class="cls-5" d="M140.65,58.12v7.44c0,.87.15,1.6.46,2.18.45.87,1.21,1.31,2.28,1.31,1.28,0,2.16-.48,2.62-1.42.25-.51.37-1.2.37-2.07v-7.44h1.5v6.77c0,1.48-.18,2.62-.55,3.43-.67,1.45-1.94,2.18-3.81,2.18s-3.14-.73-3.82-2.18c-.37-.8-.55-1.95-.55-3.43v-6.77h1.5Z"/>
    <polygon class="cls-5" points="150.12 58.12 151.87 58.12 157.43 67.89 157.43 58.12 158.84 58.12 158.84 70.19 157.17 70.19 151.54 60.43 151.54 70.19 150.12 70.19 150.12 58.12 150.12 58.12"/>
    <polygon class="cls-5" points="160.64 64.74 164.43 64.74 164.43 66.26 160.64 66.26 160.64 64.74 160.64 64.74"/>
    <polygon class="cls-5" points="166.25 58.12 167.76 58.12 167.76 68.78 173.3 68.78 173.3 70.19 166.25 70.19 166.25 58.12 166.25 58.12"/>
    <path class="cls-5" d="M178.89,64.86c.31-.04.52-.19.62-.42.06-.13.1-.32.1-.57,0-.5-.17-.87-.49-1.09-.33-.23-.8-.34-1.41-.34-.71,0-1.21.21-1.5.62-.16.23-.27.57-.33,1.03h-1.27c.03-1.09.35-1.84.97-2.26.62-.43,1.34-.64,2.16-.64.95,0,1.72.2,2.31.59.59.39.88,1.01.88,1.84v5.06c0,.15.03.27.09.37.06.09.18.14.36.14.06,0,.13,0,.2-.01.08,0,.15-.02.24-.03v1.1c-.21.06-.37.1-.48.12-.11.02-.26.02-.45.02-.46,0-.8-.18-1.01-.54-.12-.19-.19-.47-.24-.81-.28.4-.67.75-1.19,1.04-.52.3-1.09.44-1.71.44-.75,0-1.36-.25-1.84-.74-.48-.5-.71-1.12-.71-1.87,0-.82.23-1.45.69-1.9.47-.45,1.08-.73,1.84-.83l2.16-.3h0ZM176.02,68.86c.29.25.63.37,1.02.37.48,0,.95-.12,1.39-.37.76-.4,1.14-1.06,1.14-1.97v-1.19c-.16.12-.38.22-.64.3-.26.08-.52.14-.77.17l-.82.11c-.49.07-.86.18-1.11.33-.43.26-.64.67-.64,1.23,0,.43.14.76.43,1.01h0Z"/>
    <polygon class="cls-5" points="183.67 61.38 185.23 68.32 186.8 61.38 188.32 61.38 189.91 68.28 191.56 61.38 192.91 61.38 190.56 70.19 189.16 70.19 187.51 63.37 185.93 70.19 184.52 70.19 182.18 61.38 183.67 61.38 183.67 61.38"/>
    <path class="cls-5" d="M199.16,61.38h1.5c-.19.56-.62,1.85-1.27,3.86-.49,1.52-.9,2.75-1.23,3.71-.79,2.25-1.34,3.61-1.66,4.1-.32.49-.87.74-1.65.74-.19,0-.34-.01-.45-.03-.1-.02-.23-.05-.38-.09v-1.34c.23.07.41.11.51.13.1.02.19.03.28.03.25,0,.43-.05.55-.14.12-.09.22-.2.3-.33.03-.04.11-.27.27-.67.16-.4.27-.7.34-.9l-2.98-9.07h1.54l2.16,7.18,2.18-7.18h0Z"/>
    <path class="cls-5" d="M206.77,61.64c.53.29.94.67,1.22,1.13.27.44.45.96.54,1.54.08.41.12,1.05.12,1.94h-5.87c.02.9.21,1.61.57,2.16.36.54.91.81,1.67.81.71,0,1.26-.26,1.68-.77.24-.3.41-.64.52-1.03h1.32c-.03.32-.15.68-.35,1.08-.2.4-.42.72-.66.97-.41.43-.91.73-1.52.88-.33.09-.7.13-1.11.13-1,0-1.84-.4-2.54-1.19-.69-.8-1.04-1.91-1.04-3.35s.35-2.55,1.04-3.43c.7-.88,1.61-1.32,2.74-1.32.56,0,1.12.14,1.66.44h0ZM207.25,65.08c-.06-.64-.18-1.15-.38-1.54-.37-.71-.99-1.07-1.84-1.07-.62,0-1.13.25-1.55.74-.42.49-.64,1.11-.67,1.87h4.45Z"/>
    <path class="cls-5" d="M210.32,61.38h1.29v1.53c.1-.29.36-.65.77-1.07.41-.42.88-.63,1.42-.63.03,0,.07,0,.13,0,.06,0,.16.02.3.03v1.55c-.08-.01-.15-.02-.22-.03-.06,0-.14,0-.22,0-.68,0-1.2.24-1.57.72-.37.48-.54,1.03-.54,1.65v5.06h-1.36v-8.81h0Z"/>
    <path class="cls-5" d="M216.14,67.4c.04.49.15.87.34,1.13.34.48.95.72,1.81.72.5,0,.96-.12,1.34-.35.39-.24.58-.61.58-1.1,0-.38-.15-.66-.46-.86-.2-.12-.59-.26-1.18-.42l-1.09-.29c-.69-.19-1.21-.39-1.54-.62-.59-.4-.88-.95-.88-1.66,0-.83.28-1.5.84-2.01.56-.51,1.3-.77,2.23-.77,1.23,0,2.12.39,2.66,1.17.33.49.5,1.02.49,1.59h-1.29c-.02-.33-.13-.63-.32-.91-.31-.38-.86-.58-1.64-.58-.51,0-.9.11-1.17.32-.27.21-.4.5-.4.84,0,.38.17.68.53.91.2.14.5.26.89.36l.9.24c.98.26,1.64.5,1.97.74.53.38.79.97.79,1.78s-.27,1.46-.83,2.02c-.55.57-1.39.85-2.51.85-1.21,0-2.07-.3-2.58-.89-.51-.59-.77-1.33-.81-2.21h1.31Z"/>
    <path class="cls-5" d="M227.81,58.71c.31-.51.92-.76,1.84-.76.08,0,.17,0,.26.01.09,0,.2.01.31.03v1.34c-.14,0-.24-.01-.3-.01-.06,0-.12,0-.18,0-.42,0-.66.11-.74.34-.08.23-.12.82-.12,1.77h1.34v1.16h-1.34v7.59h-1.36v-7.59h-1.13v-1.16h1.13v-1.38c.02-.61.12-1.06.29-1.34h0Z"/>
    <path class="cls-5" d="M237.25,62.26c.71.75,1.07,1.86,1.07,3.33s-.31,2.59-.94,3.52c-.63.92-1.6,1.39-2.93,1.39-1.1,0-1.97-.41-2.62-1.23-.65-.82-.97-1.92-.97-3.3,0-1.48.34-2.66,1.02-3.53.68-.87,1.6-1.32,2.75-1.32,1.03,0,1.91.38,2.62,1.14h0ZM236.43,68.11c.33-.74.5-1.57.5-2.49,0-.82-.12-1.49-.36-2.01-.38-.81-1.04-1.22-1.96-1.22-.82,0-1.42.35-1.79,1.04-.38.69-.56,1.53-.56,2.5s.19,1.72.56,2.35c.37.62.97.94,1.78.94.89,0,1.5-.37,1.83-1.12h0Z"/>
    <path class="cls-5" d="M239.94,61.38h1.29v1.53c.1-.29.36-.65.77-1.07.41-.42.89-.63,1.42-.63.03,0,.07,0,.13,0,.06,0,.16.02.3.03v1.55c-.08-.01-.15-.02-.21-.03-.07,0-.15,0-.22,0-.68,0-1.21.24-1.57.72-.36.48-.54,1.03-.54,1.65v5.06h-1.36v-8.81h0Z"/>
    <path class="cls-5" d="M253.49,64.86c.31-.04.52-.19.63-.42.06-.13.09-.32.09-.57,0-.5-.17-.87-.49-1.09-.33-.23-.8-.34-1.41-.34-.71,0-1.21.21-1.5.62-.16.23-.27.57-.33,1.03h-1.27c.03-1.09.35-1.84.97-2.26.62-.43,1.34-.64,2.16-.64.95,0,1.72.2,2.31.59.58.39.88,1.01.88,1.84v5.06c0,.15.03.27.08.37.06.09.18.14.37.14.06,0,.12,0,.2-.01.07,0,.16-.02.24-.03v1.1c-.21.06-.37.1-.48.12-.11.02-.26.02-.45.02-.46,0-.8-.18-1.01-.54-.12-.19-.19-.47-.24-.81-.27.4-.67.75-1.19,1.04-.52.3-1.09.44-1.71.44-.75,0-1.36-.25-1.84-.74-.47-.5-.7-1.12-.7-1.87,0-.82.23-1.45.69-1.9.47-.45,1.08-.73,1.84-.83l2.16-.3h0ZM250.62,68.86c.29.25.63.37,1.02.37.49,0,.95-.12,1.4-.37.76-.4,1.14-1.06,1.14-1.97v-1.19c-.17.12-.38.22-.64.3-.26.08-.52.14-.77.17l-.82.11c-.49.07-.86.18-1.11.33-.43.26-.64.67-.64,1.23,0,.43.14.76.43,1.01h0Z"/>
    <path class="cls-5" d="M262.13,58.12h4.43c1.5,0,2.67.59,3.5,1.77.74,1.06,1.11,2.42,1.11,4.08,0,1.29-.22,2.44-.66,3.48-.77,1.83-2.09,2.75-3.96,2.75h-4.41v-12.07h0ZM266.26,68.79c.5,0,.91-.05,1.23-.17.57-.21,1.05-.62,1.42-1.23.29-.49.5-1.12.63-1.87.08-.45.11-.88.11-1.26,0-1.49-.27-2.65-.8-3.48-.54-.83-1.41-1.24-2.6-1.24h-2.62v9.26h2.63Z"/>
    <path class="cls-5" d="M277.94,61.64c.54.29.94.67,1.22,1.13.27.44.45.96.54,1.54.08.41.12,1.05.12,1.94h-5.87c.02.9.21,1.61.57,2.16.36.54.92.81,1.68.81.7,0,1.26-.26,1.68-.77.24-.3.41-.64.52-1.03h1.32c-.03.32-.15.68-.34,1.08-.2.4-.42.72-.67.97-.41.43-.91.73-1.52.88-.33.09-.69.13-1.11.13-1,0-1.84-.4-2.53-1.19-.7-.8-1.04-1.91-1.04-3.35s.35-2.55,1.05-3.43c.7-.88,1.61-1.32,2.74-1.32.57,0,1.12.14,1.66.44h0ZM278.43,65.08c-.06-.64-.18-1.15-.38-1.54-.37-.71-.98-1.07-1.84-1.07-.62,0-1.14.25-1.55.74-.42.49-.64,1.11-.67,1.87h4.44Z"/>
    <path class="cls-5" d="M281.45,61.38h1.32v1.26c.32-.43.62-.74.87-.94.45-.33.96-.5,1.53-.5.64,0,1.16.17,1.55.51.22.2.42.49.6.87.3-.47.66-.82,1.07-1.04.41-.23.87-.34,1.38-.34,1.09,0,1.83.42,2.23,1.28.21.46.32,1.08.32,1.85v5.85h-1.42v-6.11c0-.59-.14-.99-.41-1.21-.27-.22-.6-.33-1-.33-.54,0-1,.19-1.38.58-.39.38-.58,1.04-.58,1.94v5.12h-1.36v-5.74c0-.59-.07-1.03-.2-1.3-.21-.41-.59-.62-1.15-.62-.51,0-.98.22-1.4.65-.42.43-.63,1.22-.63,2.36v4.66h-1.36v-8.81h0Z"/>
    <path class="cls-5" d="M300.08,62.26c.72.75,1.07,1.86,1.07,3.33s-.32,2.59-.95,3.52c-.63.92-1.6,1.39-2.93,1.39-1.1,0-1.98-.41-2.63-1.23-.65-.82-.97-1.92-.97-3.3,0-1.48.34-2.66,1.03-3.53.68-.87,1.6-1.32,2.75-1.32,1.03,0,1.9.38,2.62,1.14h0ZM299.26,68.11c.33-.74.5-1.57.5-2.49,0-.82-.12-1.49-.36-2.01-.38-.81-1.04-1.22-1.96-1.22-.82,0-1.42.35-1.79,1.04-.37.69-.56,1.53-.56,2.5s.19,1.72.56,2.35c.38.62.97.94,1.79.94.89,0,1.5-.37,1.83-1.12h0Z"/>
    <path class="cls-5" d="M308.05,61.85c.57.48.91,1.31,1.03,2.48h-1.33c-.07-.54-.26-.99-.54-1.35-.29-.36-.75-.54-1.38-.54-.86,0-1.48.46-1.85,1.38-.24.6-.36,1.33-.36,2.21s.17,1.62.52,2.23c.34.6.88.9,1.61.9.55,0,1-.19,1.33-.56.33-.38.55-.89.67-1.54h1.33c-.15,1.17-.52,2.02-1.13,2.56-.61.54-1.37.8-2.31.8-1.06,0-1.9-.42-2.52-1.26-.63-.84-.94-1.89-.94-3.15,0-1.55.34-2.75,1.03-3.61.68-.86,1.57-1.29,2.63-1.29.91,0,1.65.24,2.22.73h0Z"/>
    <path class="cls-5" d="M310.41,61.38h1.29v1.53c.1-.29.36-.65.77-1.07.41-.42.89-.63,1.42-.63.03,0,.08,0,.14,0,.06,0,.16.02.3.03v1.55c-.08-.01-.15-.02-.22-.03-.07,0-.14,0-.22,0-.68,0-1.2.24-1.57.72-.37.48-.55,1.03-.55,1.65v5.06h-1.36v-8.81h0Z"/>
    <path class="cls-5" d="M319.75,64.86c.31-.04.52-.19.63-.42.06-.13.09-.32.09-.57,0-.5-.17-.87-.5-1.09-.33-.23-.8-.34-1.41-.34-.7,0-1.21.21-1.5.62-.16.23-.27.57-.33,1.03h-1.27c.03-1.09.35-1.84.97-2.26.62-.43,1.34-.64,2.16-.64.95,0,1.72.2,2.32.59.58.39.88,1.01.88,1.84v5.06c0,.15.03.27.08.37.06.09.18.14.37.14.06,0,.13,0,.2-.01.07,0,.15-.02.24-.03v1.1c-.21.06-.37.1-.48.12-.11.02-.27.02-.46.02-.46,0-.8-.18-1.01-.54-.12-.19-.19-.47-.24-.81-.27.4-.67.75-1.19,1.04-.52.3-1.09.44-1.71.44-.75,0-1.36-.25-1.84-.74-.48-.5-.71-1.12-.71-1.87,0-.82.23-1.45.7-1.9.46-.45,1.08-.73,1.84-.83l2.16-.3h0ZM316.88,68.86c.29.25.63.37,1.02.37.49,0,.95-.12,1.39-.37.76-.4,1.14-1.06,1.14-1.97v-1.19c-.17.12-.38.22-.64.3-.26.08-.52.14-.77.17l-.82.11c-.49.07-.86.18-1.12.33-.42.26-.64.67-.64,1.23,0,.43.15.76.43,1.01h0Z"/>
    <path class="cls-5" d="M324.21,58.95h1.36v2.43h1.31v1.23h-1.31v5.73c0,.3.1.51.29.61.1.06.28.09.53.09.07,0,.14,0,.21,0,.07,0,.17-.02.27-.03v1.18c-.16.05-.32.09-.49.11-.17.03-.35.04-.55.04-.64,0-1.07-.18-1.3-.53-.22-.35-.33-.81-.33-1.37v-5.82h-1.09v-1.23h1.09v-2.43h0Z"/>
    <path class="cls-5" d="M328.15,59.79h1.36v-1.67h-1.36v1.67h0ZM328.15,70.19h1.36v-8.76h-1.36v8.76h0Z"/>
    <path class="cls-5" d="M336.81,61.85c.57.48.91,1.31,1.03,2.48h-1.33c-.07-.54-.26-.99-.54-1.35-.29-.36-.75-.54-1.37-.54-.86,0-1.48.46-1.85,1.38-.24.6-.36,1.33-.36,2.21s.17,1.62.51,2.23c.34.6.88.9,1.61.9.55,0,1-.19,1.33-.56.33-.38.55-.89.67-1.54h1.33c-.15,1.17-.53,2.02-1.13,2.56-.61.54-1.37.8-2.31.8-1.06,0-1.9-.42-2.52-1.26-.63-.84-.94-1.89-.94-3.15,0-1.55.34-2.75,1.03-3.61.68-.86,1.56-1.29,2.63-1.29.91,0,1.65.24,2.21.73h0Z"/>
    <path class="cls-5" d="M344.5,66.29c.03.68.17,1.24.43,1.67.48.8,1.32,1.2,2.52,1.2.54,0,1.04-.09,1.48-.26.87-.34,1.3-.95,1.3-1.83,0-.66-.18-1.13-.55-1.41-.37-.27-.95-.51-1.73-.71l-1.45-.37c-.96-.24-1.62-.5-2.02-.79-.68-.5-1.02-1.25-1.02-2.26,0-1.08.33-1.97,1-2.67.67-.69,1.62-1.04,2.85-1.04,1.13,0,2.09.31,2.88.91.79.61,1.19,1.59,1.19,2.93h-1.4c-.08-.65-.23-1.14-.47-1.49-.43-.63-1.18-.95-2.23-.95-.85,0-1.47.2-1.84.61-.37.41-.56.88-.56,1.42,0,.59.22,1.02.65,1.3.29.17.94.39,1.95.65l1.5.39c.73.18,1.29.44,1.68.77.68.56,1.03,1.38,1.03,2.45,0,1.34-.43,2.29-1.31,2.87-.87.57-1.88.86-3.04.86-1.34,0-2.39-.38-3.15-1.15-.75-.77-1.13-1.79-1.12-3.1h1.42Z"/>
    <path class="cls-5" d="M359.41,62.26c.71.75,1.07,1.86,1.07,3.33s-.31,2.59-.95,3.52c-.63.92-1.6,1.39-2.93,1.39-1.1,0-1.98-.41-2.63-1.23-.65-.82-.97-1.92-.97-3.3,0-1.48.34-2.66,1.02-3.53.68-.87,1.6-1.32,2.76-1.32,1.03,0,1.9.38,2.62,1.14h0ZM358.59,68.11c.33-.74.5-1.57.5-2.49,0-.82-.12-1.49-.36-2.01-.38-.81-1.04-1.22-1.96-1.22-.82,0-1.42.35-1.79,1.04-.38.69-.56,1.53-.56,2.5s.18,1.72.56,2.35c.37.62.97.94,1.79.94.89,0,1.5-.37,1.83-1.12h0Z"/>
    <path class="cls-5" d="M367.38,61.85c.57.48.91,1.31,1.02,2.48h-1.32c-.08-.54-.26-.99-.54-1.35s-.75-.54-1.37-.54c-.87,0-1.48.46-1.85,1.38-.24.6-.36,1.33-.36,2.21s.17,1.62.51,2.23c.34.6.88.9,1.61.9.56,0,1-.19,1.33-.56.33-.38.56-.89.68-1.54h1.32c-.15,1.17-.52,2.02-1.13,2.56-.6.54-1.38.8-2.31.8-1.06,0-1.9-.42-2.53-1.26-.62-.84-.94-1.89-.94-3.15,0-1.55.34-2.75,1.03-3.61.69-.86,1.57-1.29,2.63-1.29.91,0,1.65.24,2.22.73h0Z"/>
    <path class="cls-5" d="M369.7,58.12h1.36v1.67h-1.36v-1.67h0ZM369.7,61.43h1.36v8.76h-1.36v-8.76h0Z"/>
    <path class="cls-5" d="M378.04,61.64c.54.29.95.67,1.22,1.13.27.44.45.96.54,1.54.08.41.12,1.05.12,1.94h-5.87c.02.9.21,1.61.57,2.16.36.54.91.81,1.67.81.71,0,1.26-.26,1.68-.77.24-.3.41-.64.51-1.03h1.32c-.03.32-.15.68-.34,1.08-.2.4-.42.72-.66.97-.41.43-.92.73-1.52.88-.33.09-.7.13-1.1.13-1,0-1.84-.4-2.54-1.19-.7-.8-1.04-1.91-1.04-3.35s.34-2.55,1.04-3.43c.69-.88,1.61-1.32,2.74-1.32.56,0,1.12.14,1.65.44h0ZM378.52,65.08c-.05-.64-.18-1.15-.38-1.54-.37-.71-.98-1.07-1.84-1.07-.62,0-1.13.25-1.55.74-.42.49-.64,1.11-.67,1.87h4.44Z"/>
    <path class="cls-5" d="M381.82,58.95h1.36v2.43h1.31v1.23h-1.31v5.73c0,.3.1.51.3.61.1.06.28.09.53.09.06,0,.14,0,.21,0,.07,0,.16-.02.27-.03v1.18c-.16.05-.32.09-.49.11-.16.03-.35.04-.54.04-.63,0-1.07-.18-1.29-.53-.22-.35-.34-.81-.34-1.37v-5.82h-1.09v-1.23h1.09v-2.43h0Z"/>
    <path class="cls-5" d="M390.78,61.38h1.5c-.19.56-.62,1.85-1.27,3.86-.49,1.52-.9,2.75-1.23,3.71-.78,2.25-1.34,3.61-1.66,4.1-.32.49-.87.74-1.66.74-.19,0-.34-.01-.45-.03-.1-.02-.22-.05-.37-.09v-1.34c.23.07.41.11.5.13.11.02.2.03.28.03.25,0,.44-.05.56-.14.11-.09.21-.2.3-.33.02-.04.11-.27.27-.67.16-.4.27-.7.34-.9l-2.98-9.07h1.54l2.16,7.18,2.17-7.18h0Z"/>
  </g>
</svg>