<?xml version="1.0" encoding="UTF-8"?>
<svg id="_레이어_1" data-name="레이어 1" xmlns="http://www.w3.org/2000/svg" viewBox="0 0 20 20">
  <defs>
    <style>
      .cls-1 {
        opacity: .6;
      }

      .cls-1, .cls-2 {
        isolation: isolate;
      }

      .cls-1, .cls-2, .cls-3 {
        fill: #8c1e5a;
        stroke-width: 0px;
      }

      .cls-2 {
        opacity: .8;
      }
    </style>
  </defs>
  <path class="cls-2" d="M14.39,2.43c0,.61-.5,1.17-1.17,1.17-.61,0-1.17-.5-1.17-1.17,0-.61.5-1.17,1.17-1.17.67,0,1.17.5,1.17,1.17h0Z"/>
  <path class="cls-1" d="M6.21,4.04c0,.61-.5,1.17-1.17,1.17-.61,0-1.11-.5-1.11-1.17,0-.61.5-1.11,1.17-1.11.61,0,1.11.5,1.11,1.11h0Z"/>
  <path class="cls-1" d="M5.66,7.1l4.06,7.56H3.93c0,.06,2.28-1.45,1.72-7.56h0Z"/>
  <path class="cls-2" d="M14.61,5.32l4.17,8.12h-5.95c0,.06,2.34-1.56,1.78-8.12h0Z"/>
  <path class="cls-3" d="M19.95,1.65c-.17-.56-1.11-.5-1.5-.39-.17.06-.33.11-.44.22-.06.06-.11.11-.11.17s-.06.06-.17.17c-.28.28-.56.5-.89.72-1,.78-2.06,1.39-3.22,1.95-3.78,1.78-8.06,2.06-12.12.95-.39-.11-1-.11-1.39.17-.39.28.11.56.33.61,4.67,1.28,9.56,1,14.01-.83,1.45-.61,2.78-1.39,4.06-2.34.17-.17,1.56-1,1.45-1.39h0Z"/>
  <path class="cls-3" d="M10.49,3.66c0,.67-.5,1.17-1.17,1.17s-1.17-.5-1.17-1.17.5-1.17,1.17-1.17c.61,0,1.17.5,1.17,1.17h0Z"/>
  <path class="cls-3" d="M9.83,6.82l6.06,12.18H7.27s3.45-2.39,2.56-12.18h0Z"/>
</svg>